<?xml version="1.0" standalone="no"?>
<!DOCTYPE svg PUBLIC "-//W3C//DTD SVG 1.1//EN" "http://www.w3.org/Graphics/SVG/1.1/DTD/svg11.dtd" >
<svg xmlns="http://www.w3.org/2000/svg">
<metadata>Generated by IcoMoon</metadata>
<defs>
<font id="lato-light-webfont" horiz-adv-x="1024">
<font-face units-per-em="1024" ascent="960" descent="-64" />
<missing-glyph horiz-adv-x="1024" />
<glyph unicode="&#x20;" horiz-adv-x="256" d="" />
<glyph unicode="&#x21;" glyph-name="uni21" horiz-adv-x="261" d="M154.624 860.16v-292.864q0-23.040-0.512-43.52t-1.28-41.728-2.304-44.8-3.072-52.224h-33.28q-1.536 28.672-3.072 52.224t-2.304 44.8-1.28 41.728-0.512 43.52v292.864h47.616zM81.92 175.104q0 9.728 3.584 18.432t9.984 15.104 14.848 10.24 18.688 3.84q9.728 0 18.432-3.84t15.104-10.24 10.24-15.104 3.84-18.432q0-10.24-3.84-18.688t-10.24-14.848-15.104-9.984-18.432-3.584q-19.968 0-33.536 13.568t-13.568 33.536z" />
<glyph unicode="&#x22;" glyph-name="uni22" horiz-adv-x="349" d="M121.344 860.16v-149.504l-4.608-78.336q-1.024-8.704-4.608-13.568t-12.288-4.864q-7.168 0-11.264 4.864t-5.12 13.568l-4.608 78.336v149.504h42.496zM269.824 860.16v-149.504l-4.608-78.336q-1.024-8.704-4.608-13.568t-12.288-4.864q-7.168 0-11.264 4.864t-5.12 13.568l-4.608 78.336v149.504h42.496z" />
<glyph unicode="&#x23;" glyph-name="uni23" horiz-adv-x="594" d="M385.024 362.496l-48.128-226.816h-20.48q-8.704 0-13.568 6.144t-2.304 16.384l43.52 204.288h-152.576l-43.52-206.336q-2.048-11.264-8.704-15.872t-15.36-4.608h-21.504l48.128 226.816h-93.184q-8.704 0-12.544 4.608t-2.816 16.384l2.048 14.848h111.616l42.496 199.168h-130.048l3.072 19.456q2.048 16.896 23.040 16.896h109.056l44.544 206.848q1.536 9.728 7.936 14.592t15.616 4.864h20.992l-48.128-226.304h152.576l48.128 226.304h21.504q8.704 0 13.312-5.632t2.56-15.872l-44.544-204.8h114.688l-3.072-19.456q-1.024-8.704-6.4-12.8t-16.128-4.096h-94.208l-42.496-199.168h115.712q8.192 0 12.288-4.608t2.56-15.872l-2.048-15.36h-133.632zM196.608 398.336h152.576l42.496 199.168h-152.576z" />
<glyph unicode="&#x24;" glyph-name="uni24" horiz-adv-x="594" d="M268.288 128q-65.536 3.072-113.92 28.16t-85.248 66.048l13.824 19.968q6.144 7.68 14.336 7.68 4.608 0 11.264-5.632t16.384-14.080 23.040-18.432 30.976-18.944 40.192-15.616 51.2-8.192l16.384 325.632q-34.816 10.752-67.84 24.064t-58.88 34.048-41.728 51.2-15.872 76.544q0 35.84 13.568 68.864t39.424 58.624 63.744 41.472 86.528 17.408l4.608 86.016q0 7.168 4.096 11.776t10.752 4.608h18.432l-5.12-102.912q51.712-3.584 90.624-22.784t71.168-51.456l-11.264-17.408q-5.12-8.704-13.824-8.704-6.144 0-16.128 8.448t-26.112 18.688-39.68 19.712-56.832 12.032l-14.848-292.864q36.352-11.776 72.192-24.576t64-33.28 45.568-50.688 17.408-76.288q0-44.032-14.848-82.944t-42.752-68.352-68.864-47.36-93.184-20.48l-5.12-108.032q-0.512-6.656-4.352-11.264t-11.008-4.608h-18.432zM474.624 339.456q0 33.792-12.8 57.344t-34.304 39.936-49.664 27.392-58.88 20.736l-15.872-315.904q40.96 2.56 72.96 16.64t53.76 36.864 33.28 52.736 11.52 64.256zM148.48 684.544q0-31.744 11.264-54.272t30.72-38.656 44.8-27.648 54.016-21.248l14.336 282.624q-38.912-2.048-67.84-14.336t-48.384-31.488-29.184-43.776-9.728-51.2z" />
<glyph unicode="&#x25;" glyph-name="uni25" horiz-adv-x="798" d="M355.84 686.080q0-44.544-12.288-78.592t-33.28-56.576-48.64-34.048-58.368-11.52q-31.744 0-59.648 11.52t-48.384 34.048-32.256 56.576-11.776 78.592q0 45.056 11.776 79.36t32.256 57.088 48.384 34.304 59.648 11.52 59.392-11.52 48.384-34.304 32.768-57.088 12.032-79.36zM316.928 686.080q0 39.424-8.96 67.584t-24.576 46.336-36.352 26.624-43.776 8.448-43.52-8.448-35.84-26.624-24.32-46.336-8.96-67.584 8.96-67.328 24.32-45.824 35.84-26.368 43.52-8.448 43.776 8.448 36.352 26.368 24.576 45.824 8.96 67.328zM630.784 850.944q3.072 4.096 7.424 6.656t11.52 2.56h34.304l-520.192-715.264q-6.656-9.216-17.92-9.216h-34.816zM747.008 307.712q0-44.544-12.288-78.592t-33.024-56.576-48.384-34.048-58.368-11.52q-31.744 0-59.648 11.52t-48.384 34.048-32.256 56.576-11.776 78.592q0 45.056 11.776 79.36t32.256 57.088 48.384 34.304 59.648 11.52 59.392-11.52 48.384-34.304 32.512-57.088 11.776-79.36zM708.096 307.712q0 39.424-8.96 67.84t-24.32 46.592-36.096 26.624-43.776 8.448-43.776-8.448-36.096-26.624-24.32-46.592-8.96-67.84 8.96-67.328 24.32-45.824 36.096-26.112 43.776-8.192 43.776 8.192 36.096 26.112 24.32 45.824 8.96 67.328z" />
<glyph unicode="&#x26;" glyph-name="uni26" horiz-adv-x="715" d="M337.92 868.352q34.304 0 65.024-11.776t53.504-31.744 36.352-46.336 14.592-55.040l-27.648-5.632q-5.12-1.024-9.472 1.792t-6.912 9.984q-2.56 13.824-11.008 31.232t-23.808 32.768-37.888 25.856-52.736 10.496q-30.72 0-55.808-9.472t-43.008-26.624-27.904-40.704-9.984-51.712q0-41.984 21.504-80.384t66.56-82.432l228.352-225.28q23.040 36.864 36.608 76.8t17.664 77.312q1.024 6.656 4.096 10.496t9.216 3.84h28.16q-1.024-48.128-18.176-99.072t-48.896-97.536l152.576-149.504h-45.568q-9.216 0-15.104 2.048t-13.568 9.216l-104.96 102.912q-23.040-26.624-50.688-49.152t-59.904-38.656-68.864-25.344-77.056-9.216q-38.4 0-75.776 12.8t-66.816 37.632-47.616 60.928-18.176 82.176q0 36.864 13.312 70.4t36.352 61.44 54.784 49.92 68.608 35.84q-36.352 40.96-54.528 79.616t-18.176 82.688q0 35.84 13.056 66.304t37.12 52.992 57.6 35.328 75.008 12.8zM270.336 167.424q35.84 0 67.84 8.192t59.904 22.784 51.2 34.56 42.752 44.032l-235.008 230.912q-3.072 2.56-5.632 5.632-33.792-14.336-61.184-34.304t-46.336-44.288-29.184-52.48-10.24-58.368q0-39.424 15.104-68.608t39.168-48.896 53.504-29.44 58.112-9.728z" />
<glyph unicode="&#x27;" glyph-name="uni27" horiz-adv-x="200" d="M121.344 860.16v-149.504l-4.608-78.336q-1.024-8.704-4.608-13.568t-12.288-4.864q-7.168 0-11.264 4.864t-5.12 13.568l-4.608 78.336v149.504h42.496z" />
<glyph unicode="&#x28;" glyph-name="uni28" horiz-adv-x="264" d="M99.328 458.24q0-114.688 30.976-219.904t92.416-203.008q5.12-8.704 2.816-14.080t-6.4-7.936l-21.504-13.312q-39.424 60.416-66.304 116.992t-43.52 112.64-24.064 112.384-7.424 116.224 7.424 116.48 24.064 112.64 43.52 112.64 66.304 116.992l21.504-13.312q4.096-2.56 6.4-7.936t-2.816-14.080q-61.44-97.792-92.416-203.008t-30.976-220.416z" />
<glyph unicode="&#x29;" glyph-name="uni29" horiz-adv-x="264" d="M164.864 458.24q0 115.2-30.976 220.416t-92.416 203.008q-5.12 8.704-2.816 14.080t6.4 7.936l21.504 13.312q39.424-60.416 66.304-116.992t43.52-112.64 24.064-112.64 7.424-116.48-7.424-116.224-24.064-112.384-43.52-112.64-66.304-116.992l-21.504 13.312q-4.096 2.56-6.4 7.936t2.816 14.080q61.44 97.792 92.416 203.008t30.976 219.904z" />
<glyph unicode="&#x2a;" glyph-name="uni2A" horiz-adv-x="435" d="M203.776 594.944v109.056q0 8.704 1.28 15.36t5.376 15.36q-5.632-7.68-11.008-11.776t-13.056-8.704l-96.256-55.808-12.8 22.528 96.256 56.32q7.168 4.096 13.824 6.144t15.872 3.584q-9.728 1.536-16.128 3.84t-13.568 6.912l-97.28 56.32 13.312 23.040 96.768-56.32q8.192-5.12 13.056-9.984t12.032-13.568q-4.096 9.728-5.888 17.152t-1.792 16.128v109.568h26.624v-109.056q0-9.216-1.28-16.64t-5.376-16.64q6.144 8.704 11.52 13.312t13.056 9.728l96.256 55.808 13.312-23.040-96.256-55.808q-7.68-4.608-14.336-7.168t-15.36-3.584q9.216-1.536 15.616-3.584t14.080-6.144l96.768-56.32-12.8-23.040-97.28 56.32q-7.68 4.608-12.8 8.704t-11.776 12.8q3.072-9.216 4.864-15.872t1.792-15.36v-109.568h-26.624z" />
<glyph unicode="&#x2b;" glyph-name="uni2B" horiz-adv-x="594" d="M316.928 728.576v-230.912h220.672v-37.376h-220.672v-231.936h-39.936v231.936h-220.16v37.376h220.16v230.912h39.936z" />
<glyph unicode="&#x2c;" glyph-name="uni2C" horiz-adv-x="224" d="M68.096 179.2q0 17.92 12.288 30.72t32.256 12.8q22.016 0 34.048-15.104t12.032-39.68q0-20.992-5.376-42.752t-15.616-42.752-24.576-40.448-31.744-35.84l-7.68 7.68q-2.56 2.048-3.328 4.096t-0.768 4.608q0 3.072 4.096 8.192 4.608 5.12 12.544 15.104t16.384 23.552 15.104 30.464 8.704 35.84q-3.072-1.024-6.912-1.536t-8.448-0.512q-18.944 0-30.976 12.8t-12.032 32.768z" />
<glyph unicode="&#x2d;" glyph-name="uni2D" horiz-adv-x="379" d="M70.656 460.288h238.080v-41.472h-238.080v41.472z" />
<glyph unicode="&#x2e;" glyph-name="uni2E" horiz-adv-x="239" d="M72.192 175.104q0 9.728 3.584 18.432t9.984 15.104 14.848 10.24 18.688 3.84q9.728 0 18.432-3.84t15.104-10.24 10.24-15.104 3.84-18.432q0-10.24-3.84-18.688t-10.24-14.848-15.104-9.984-18.432-3.584q-19.968 0-33.536 13.568t-13.568 33.536z" />
<glyph unicode="&#x2f;" glyph-name="uni2F" horiz-adv-x="445" d="M88.064 112.64q-4.096-10.24-12.288-15.104t-16.896-4.864h-19.968l318.464 769.024q7.68 18.944 27.648 18.944h20.992z" />
<glyph unicode="&#x30;" glyph-name="uni30" horiz-adv-x="594" d="M556.544 498.176q0-95.232-20.48-164.864t-55.808-115.2-82.688-67.84-101.12-22.272-100.864 22.272-82.432 67.84-55.552 115.2-20.224 164.864 20.224 164.864 55.552 115.2 82.432 67.84 100.864 22.272 101.12-22.272 82.688-67.84 55.808-115.2 20.48-164.864zM505.344 498.176q0 88.064-16.896 150.528t-45.312 102.144-66.56 58.112-80.128 18.432-79.872-18.432-66.56-58.112-45.568-102.144-16.896-150.528q0-88.576 16.896-150.784t45.568-101.888 66.56-57.856 79.872-18.176 80.128 18.176 66.56 57.856 45.312 101.888 16.896 150.784z" />
<glyph unicode="&#x31;" glyph-name="uni31" horiz-adv-x="594" d="M136.704 173.568h166.4v587.776q0 17.408 1.536 36.864l-159.744-141.824q-7.168-6.144-14.336-4.608t-11.264 6.144l-14.848 20.48 209.408 184.832h38.4v-689.664h158.208v-37.888h-373.76v37.888z" />
<glyph unicode="&#x32;" glyph-name="uni32" horiz-adv-x="594" d="M301.056 868.352q41.472 0 79.104-12.032t66.56-36.352 45.824-60.928 16.896-85.76q0-40.96-12.544-76.032t-34.048-67.328-49.92-62.72-59.648-62.208l-226.816-231.424q16.384 4.096 34.048 6.144t35.584 2.048h312.832q8.192 0 12.8-4.864t4.608-12.544v-28.672h-467.456v17.408q0 5.632 2.816 11.52t7.424 9.984l247.296 250.368q30.72 31.232 56.832 60.416t45.312 58.88 29.952 60.928 10.752 66.56q0 39.936-13.312 69.376t-35.328 48.384-51.2 28.16-60.416 9.216q-34.304 0-63.232-10.496t-51.2-29.184-36.864-44.544-20.224-56.576q-3.584-11.264-9.472-14.848t-16.128-2.56l-25.088 4.096q6.656 46.592 25.6 82.944t48.128 61.44 67.584 38.144 82.944 13.056z" />
<glyph unicode="&#x33;" glyph-name="uni33" horiz-adv-x="594" d="M304.128 868.352q41.472 0 78.336-11.52t64.768-34.56 44.032-57.344 16.128-79.36q0-35.328-11.008-63.744t-30.208-49.92-45.312-36.096-56.832-22.272q79.872-14.848 120.832-61.696t40.96-116.992q0-44.544-17.92-82.688t-49.152-65.792-73.728-43.264-92.16-15.616q-61.952 0-103.168 16.64t-67.84 43.264-41.472 59.648-24.064 65.792l19.456 8.192q8.192 3.584 17.152 2.048t13.056-11.776q2.56-6.144 6.912-19.2t12.544-28.928 21.248-32.512 32.768-30.464 47.36-22.528 65.536-8.704q46.080 0 80.64 15.36t57.856 39.168 34.816 53.248 11.52 57.088q0 33.28-10.496 61.952t-35.072 49.408-64.768 32.768-99.072 12.032v35.328q47.104 1.024 82.944 12.544t59.904 31.488 36.352 47.616 12.288 60.928q0 38.4-12.8 66.56t-34.304 46.592-50.176 27.136-59.904 8.704q-34.304 0-63.488-10.496t-51.456-29.184-37.12-44.544-20.48-56.576q-3.072-11.264-8.704-14.848t-15.872-2.56l-25.088 4.096q6.656 46.592 25.6 82.944t48.128 61.44 67.584 38.144 82.944 13.056z" />
<glyph unicode="&#x34;" glyph-name="uni34" horiz-adv-x="594" d="M428.544 382.464h132.608v-26.624q0-5.632-3.328-8.96t-10.496-3.328h-118.784v-207.872h-43.008v207.872h-342.528q-7.68 0-11.776 3.328t-5.632 8.96l-4.608 24.064 364.032 481.28h43.52v-478.72zM385.536 761.856q0 8.704 0.768 18.944t1.792 20.992l-313.856-419.328h311.296v379.392z" />
<glyph unicode="&#x35;" glyph-name="uni35" horiz-adv-x="594" d="M492.544 839.168q0-10.24-6.912-17.152t-21.76-6.912h-262.144l-43.52-241.664q34.304 8.704 65.024 12.544t58.368 3.84q56.832 0 99.84-16.128t71.936-45.056 43.52-68.864 14.592-87.040q0-57.344-19.712-102.656t-54.016-77.056-79.872-48.64-96.768-16.896q-29.696 0-57.088 5.376t-51.2 14.336-44.032 20.736-35.584 24.064l14.848 19.968q4.608 7.68 14.336 7.68 6.656 0 19.2-7.68t32.256-16.896 46.848-16.896 62.976-7.68q41.984 0 78.336 13.568t62.976 39.168 41.728 63.232 15.104 85.248q0 38.912-11.52 71.68t-34.816 56.064-58.88 36.352-83.712 13.056q-29.184 0-61.952-4.608t-69.632-14.848l-31.232 9.728 56.32 321.024h326.144v-20.992z" />
<glyph unicode="&#x36;" glyph-name="uni36" horiz-adv-x="594" d="M212.48 578.048q-15.872-20.992-29.184-39.424t-24.064-36.352q30.208 31.232 71.68 48.896t90.624 17.664q46.592 0 86.016-15.36t67.84-43.264 44.544-67.584 16.128-88.832-17.664-90.624-49.152-71.68-75.52-47.104-96.768-16.896q-50.688 0-92.672 16.384t-71.936 47.104-46.336 75.008-16.384 100.096q0 42.496 21.504 96t70.656 120.064l197.632 266.24q8.704 11.776 26.112 11.776h43.008zM117.248 354.304q0-40.448 12.544-74.752t35.584-59.136 56.32-38.656 74.752-13.824q44.032 0 79.36 13.824t60.16 38.144 38.144 57.856 13.312 72.96q0 41.472-13.056 75.008t-36.864 56.832-56.576 35.84-72.704 12.544q-45.056 0-80.64-15.616t-60.16-40.448-37.376-56.576-12.8-64z" />
<glyph unicode="&#x37;" glyph-name="uni37" horiz-adv-x="594" d="M546.304 860.16v-22.016q0-8.704-2.048-15.104t-4.608-11.008l-331.776-657.92q-4.096-8.192-11.008-13.312t-18.176-5.12h-33.792l334.848 655.36q3.584 7.168 7.424 12.8t7.936 11.264h-417.28q-5.632 0-9.728 4.096t-4.096 9.728v31.232h482.304z" />
<glyph unicode="&#x38;" glyph-name="uni38" horiz-adv-x="594" d="M296.96 127.488q-52.224 0-95.488 13.824t-74.24 39.936-48.384 62.976-17.408 82.944q0 39.936 11.52 71.168t32.512 54.272 49.92 38.4 63.744 23.040q-31.744 9.216-56.32 25.088t-41.216 37.888-25.344 48.896-8.704 57.6q0 38.4 14.592 72.192t41.728 58.88 65.792 39.424 87.296 14.336q48.128 0 86.784-14.336t66.048-39.424 41.984-58.88 14.592-72.192q0-30.72-8.704-57.6t-25.6-48.896-41.472-37.888-56.32-25.088q34.816-7.68 63.744-23.040t49.92-38.4 32.768-54.272 11.776-71.168q0-46.080-17.408-82.944t-48.384-62.976-74.24-39.936-95.488-13.824zM296.96 166.4q41.472 0 75.52 11.52t58.624 32.768 37.888 50.944 13.312 66.048q0 47.616-17.408 79.36t-44.544 50.688-59.904 26.88-63.488 7.936-63.488-7.936-59.904-26.88-44.544-50.688-17.408-79.36q0-36.352 13.312-66.048t37.632-50.944 58.624-32.768 75.776-11.52zM296.96 531.968q41.472 0 71.936 12.544t50.432 33.792 29.44 48.384 9.472 56.32q0 31.232-10.752 58.112t-31.488 46.848-50.688 31.232-68.352 11.264-68.608-11.264-50.944-31.232-31.488-46.848-10.752-58.112q0-29.184 9.472-56.32t29.44-48.384 50.432-33.792 72.448-12.544z" />
<glyph unicode="&#x39;" glyph-name="uni39" horiz-adv-x="594" d="M382.976 434.688q15.872 22.528 29.184 41.728t24.064 37.632q-30.208-33.792-72.704-51.968t-90.624-18.176q-44.544 0-82.176 14.592t-65.28 41.728-43.008 65.28-15.36 85.248q0 46.592 17.408 86.272t48.128 68.864 72.96 45.824 92.416 16.64q48.128 0 88.32-16.384t69.12-46.336 45.056-71.68 16.128-92.928q0-28.16-5.888-53.76t-17.408-51.2-27.904-52.48-37.376-57.6l-189.952-278.528q-7.68-11.776-25.088-11.776h-44.544zM469.504 650.24q0 39.424-12.8 72.192t-35.84 56.064-54.528 36.352-68.864 13.056q-40.448 0-73.728-12.8t-57.088-35.84-37.12-55.040-13.312-70.4q0-39.936 12.032-71.936t34.304-54.272 53.76-34.048 69.888-11.776q43.52 0 77.824 14.848t57.6 38.912 35.584 54.016 12.288 60.672z" />
<glyph unicode="&#x3a;" glyph-name="uni3A" horiz-adv-x="246" d="M75.264 175.104q0 9.728 3.584 18.432t9.984 15.104 14.848 10.24 18.688 3.84q9.728 0 18.432-3.84t15.104-10.24 10.24-15.104 3.84-18.432q0-10.24-3.84-18.688t-10.24-14.848-15.104-9.984-18.432-3.584q-19.968 0-33.536 13.568t-13.568 33.536zM75.264 583.168q0 9.728 3.584 18.432t9.984 15.104 14.848 10.24 18.688 3.84q9.728 0 18.432-3.84t15.104-10.24 10.24-15.104 3.84-18.432q0-10.24-3.84-18.688t-10.24-14.848-15.104-9.984-18.432-3.584q-19.968 0-33.536 13.568t-13.568 33.536z" />
<glyph unicode="&#x3b;" glyph-name="uni3B" horiz-adv-x="257" d="M83.456 179.2q0 17.92 12.288 30.72t32.256 12.8q22.016 0 34.048-15.104t12.032-39.68q0-20.992-5.376-42.752t-15.616-42.752-24.576-40.448-31.744-35.84l-7.68 7.68q-2.56 2.048-3.328 4.096t-0.768 4.608q0 3.072 4.096 8.192 4.608 5.12 12.544 15.104t16.384 23.552 15.104 30.464 8.704 35.84q-3.072-1.024-6.912-1.536t-8.448-0.512q-18.944 0-30.976 12.8t-12.032 32.768zM80.896 583.168q0 9.728 3.584 18.432t9.984 15.104 14.848 10.24 18.688 3.84q9.728 0 18.432-3.84t15.104-10.24 10.24-15.104 3.84-18.432q0-10.24-3.84-18.688t-10.24-14.848-15.104-9.984-18.432-3.584q-19.968 0-33.536 13.568t-13.568 33.536z" />
<glyph unicode="&#x3c;" glyph-name="uni3C" horiz-adv-x="594" d="M89.088 489.984l384 197.12v-33.28q0-5.632-3.072-9.728t-10.752-8.192l-283.136-143.36q-16.896-8.704-36.352-13.312 10.24-2.56 19.2-5.632t17.152-7.168l283.136-143.872q7.68-3.584 10.752-7.936t3.072-9.984v-33.28l-384 197.632v20.992z" />
<glyph unicode="&#x3d;" glyph-name="uni3D" horiz-adv-x="594" d="M84.992 420.352h423.936v-37.888h-423.936v37.888zM84.992 580.608h423.936v-37.888h-423.936v37.888z" />
<glyph unicode="&#x3e;" glyph-name="uni3E" horiz-adv-x="594" d="M120.832 271.36v33.28q0 5.632 3.072 9.984t10.24 7.936l283.648 143.872q15.872 8.192 36.352 12.8-10.24 2.56-19.2 5.632t-17.152 7.68l-283.648 143.36q-13.312 7.168-13.312 17.92v33.28l384-197.12v-20.992z" />
<glyph unicode="&#x3f;" glyph-name="uni3F" horiz-adv-x="442" d="M48.128 797.184q13.824 13.824 31.232 26.624t38.144 22.784 45.312 15.872 53.248 5.888q35.328 0 67.328-10.752t55.808-30.72 37.888-48.896 14.080-64.768q0-38.912-12.032-67.072t-30.464-49.408-39.936-37.376-40.448-30.208-32-28.416-14.080-31.744l-5.632-83.968h-33.28l-3.072 87.552q-1.024 21.504 10.752 37.888t30.208 31.232 39.936 30.208 40.192 34.816 31.232 44.544 12.544 59.904q0 27.648-10.752 49.408t-29.184 36.864-42.496 23.040-50.176 7.936q-33.792 0-58.624-8.96t-41.728-19.968-26.624-19.968-13.312-8.96q-7.68 0-11.264 6.144zM151.552 175.104q0 9.728 3.584 18.432t9.984 15.104 14.848 10.24 18.688 3.84q9.728 0 18.432-3.84t15.104-10.24 10.24-15.104 3.84-18.432q0-10.24-3.84-18.688t-10.24-14.848-15.104-9.984-18.432-3.584q-19.968 0-33.536 13.568t-13.568 33.536z" />
<glyph unicode="&#x40;" glyph-name="uni40" horiz-adv-x="848" d="M603.648 231.936q-45.056 0-67.84 23.808t-23.808 68.352q-28.672-47.616-64.768-68.864t-78.080-21.248q-28.672 0-49.664 9.984t-34.816 27.392-20.736 40.96-6.912 50.688q0 43.52 16.64 87.296t48.64 78.848 78.592 57.088 105.984 22.016q27.136 0 50.944-4.608t42.752-13.312l-46.592-177.664q-12.288-47.104-11.776-76.288t9.728-45.312 24.832-21.504 33.536-5.376q29.184 0 55.808 15.36t47.104 43.776 32.512 68.864 12.032 90.624q0 75.776-24.832 132.352t-67.584 93.952-99.584 55.808-120.832 18.432q-70.144 0-132.864-27.136t-110.080-75.776-75.264-115.968-27.904-147.712q0-90.624 28.928-159.488t78.592-115.2 115.968-70.144 141.056-23.808q75.776 0 138.496 17.408t113.92 50.688q6.144 4.096 11.264 2.56t7.68-7.168l7.68-18.944q-57.344-37.888-126.208-58.368t-152.832-20.48q-84.48 0-157.696 26.88t-127.488 78.336-85.504 126.464-31.232 171.264q0 85.504 30.208 158.72t82.432 126.976 121.856 84.224 148.992 30.464q68.608 0 131.584-21.248t111.36-63.488 77.312-104.704 28.928-144.896q0-55.808-14.848-101.888t-40.704-79.104-60.672-51.456-74.24-18.432zM378.368 267.776q18.432 0 38.144 6.144t37.888 22.272 34.048 43.52 26.624 69.888l40.96 158.72q-12.288 3.584-25.344 5.376t-30.464 1.792q-46.080 0-83.712-18.688t-64-48.896-40.96-67.84-14.592-76.032q0-20.48 5.12-38.144t15.36-30.464 25.344-20.224 35.584-7.424z" />
<glyph unicode="&#x41;" glyph-name="uni41" horiz-adv-x="671" d="M657.92 135.68h-40.448q-7.168 0-11.776 3.84t-7.168 9.984l-84.992 210.432h-355.84l-84.992-210.432q-2.048-5.632-7.168-9.728t-12.288-4.096h-39.936l296.448 724.48h51.712zM173.056 398.848h324.608l-147.456 366.080q-7.68 17.92-14.848 43.008-3.584-12.288-7.168-23.552t-7.168-19.968z" />
<glyph unicode="&#x42;" glyph-name="uni42" horiz-adv-x="647" d="M107.008 135.68v724.48h208.384q61.952 0 107.52-12.288t75.264-36.096 44.032-58.112 14.336-77.824q0-28.672-9.984-55.296t-28.928-49.152-46.336-39.168-62.208-25.344q85.504-12.8 131.328-57.088t45.824-115.968q0-46.080-16.384-82.944t-47.616-62.464-76.8-39.168-103.424-13.568h-235.008zM159.744 482.816v-305.152h181.76q95.232 0 144.128 41.216t48.896 115.968q0 34.304-13.056 61.696t-37.632 46.592-60.416 29.44-81.408 10.24h-182.272zM159.744 521.216h156.672q50.176 0 85.76 12.8t58.368 33.792 33.536 47.616 10.752 54.784q0 73.216-46.336 110.848t-143.104 37.632h-155.648v-297.472z" />
<glyph unicode="&#x43;" glyph-name="uni43" horiz-adv-x="692" d="M629.76 257.536q5.12 0 8.704-3.584l20.48-22.016q-22.528-24.064-48.896-43.264t-57.856-32.768-69.12-20.992-82.688-7.424q-75.264 0-137.984 26.368t-107.776 74.752-69.888 116.992-24.832 152.576q0 82.432 25.6 150.528t71.68 116.992 110.592 75.776 142.336 26.88q74.24 0 131.584-23.040t104.448-65.024l-15.872-23.040q-4.096-6.144-12.8-6.144-6.144 0-19.968 11.264t-38.4 24.832-61.184 24.832-87.808 11.264q-65.536 0-120.064-22.528t-93.696-64.512-61.184-102.4-22.016-135.68q0-76.8 22.272-137.216t61.184-102.144 91.904-64 114.432-22.272q38.912 0 69.376 5.12t56.064 15.36 47.616 25.088 43.52 34.816q2.56 2.048 5.12 3.328t5.12 1.28z" />
<glyph unicode="&#x44;" glyph-name="uni44" horiz-adv-x="778" d="M717.312 498.176q0-83.968-25.088-151.040t-70.656-114.176-109.312-72.192-140.544-25.088h-264.704v724.48h264.704q76.8 0 140.544-25.088t109.312-72.192 70.656-114.176 25.088-150.528zM663.040 498.176q0 75.776-20.992 135.168t-59.392 100.352-92.16 62.464-118.784 21.504h-211.968v-639.488h211.968q65.024 0 118.784 21.504t92.16 62.464 59.392 100.352 20.992 135.68z" />
<glyph unicode="&#x45;" glyph-name="uni45" horiz-adv-x="594" d="M541.184 860.16v-43.52h-381.44v-292.864h317.44v-42.496h-317.44v-302.080h382.464l-1.024-43.52h-434.176v724.48h434.176z" />
<glyph unicode="&#x46;" glyph-name="uni46" horiz-adv-x="578" d="M541.184 860.16v-43.52h-381.44v-304.64h330.24v-43.52h-330.24v-332.8h-52.736v724.48h434.176z" />
<glyph unicode="&#x47;" glyph-name="uni47" horiz-adv-x="753" d="M685.568 206.848q-54.272-38.4-115.712-58.88t-138.24-20.48q-86.016 0-154.624 26.368t-116.992 74.752-74.24 116.992-25.856 152.576 25.344 152.32 72.704 116.736 114.432 74.752 151.040 26.368q41.472 0 76.544-5.632t65.28-16.64 56.32-27.136 50.176-37.12l-14.336-22.528q-7.168-12.288-21.504-5.632-7.68 3.072-22.016 14.336t-39.424 23.552-62.208 22.016-90.368 9.728q-70.656 0-127.744-22.528t-97.28-64.512-61.952-102.4-21.76-135.68q0-76.288 21.76-137.216t62.976-103.424 100.096-65.024 132.608-22.528q32.256 0 59.648 3.84t52.224 11.52 48.128 18.688 47.36 24.832v195.072h-138.752q-5.632 0-9.472 3.584t-3.84 8.192v28.672h199.68v-257.536z" />
<glyph unicode="&#x48;" glyph-name="uni48" horiz-adv-x="773" d="M666.112 135.68h-52.736v347.136h-453.632v-347.136h-52.736v724.48h52.736v-337.92h453.632v337.92h52.736v-724.48z" />
<glyph unicode="&#x49;" glyph-name="uni49" horiz-adv-x="267" d="M159.744 135.68h-52.736v724.48h52.736v-724.48z" />
<glyph unicode="&#x4a;" glyph-name="uni4A" horiz-adv-x="424" d="M324.608 377.344q0-60.928-14.848-107.52t-43.008-78.336-68.096-47.872-90.112-16.128q-23.040 0-46.592 3.584t-48.64 11.264q0.512 7.168 1.28 14.336t1.792 14.336q1.024 4.608 3.84 8.192t9.984 3.584q4.608 0 11.008-1.792t15.104-3.84 20.48-3.84 27.136-1.792q38.912 0 70.144 12.288t53.248 37.632 33.536 64 11.52 90.88v483.84h52.224v-482.816z" />
<glyph unicode="&#x4b;" glyph-name="uni4B" horiz-adv-x="650" d="M159.744 525.824h43.008q9.728 0 16.896 0.768t13.056 2.816 10.752 5.888 10.496 9.472l292.352 300.544q7.68 8.704 15.104 11.776t17.664 3.072h41.984l-316.416-325.12q-9.728-10.24-17.152-15.872t-16.64-9.216q10.752-3.072 19.456-9.472t17.408-16.64l333.312-348.16h-42.496q-13.312 0-19.2 3.328t-11.52 10.496l-306.176 313.344q-5.632 5.632-10.496 9.728t-10.752 6.912-13.824 4.096-20.224 1.28h-46.592v-349.184h-52.736v724.48h52.736v-334.336z" />
<glyph unicode="&#x4c;" glyph-name="uni4C" horiz-adv-x="518" d="M159.744 180.224h343.040v-44.544h-395.776v724.48h52.736v-679.936z" />
<glyph unicode="&#x4d;" glyph-name="uni4D" horiz-adv-x="930" d="M455.168 346.624q7.68-14.336 13.312-30.72 3.072 7.68 6.656 15.872t7.68 15.36l284.16 503.296q4.096 6.656 8.448 8.192t11.52 1.536h35.84v-724.48h-45.568v617.472q0 6.144 0.256 13.312t0.768 14.336l-284.672-505.856q-7.168-13.312-20.48-13.312h-8.192q-13.312 0-20.48 13.312l-292.864 506.88q1.536-14.848 1.536-28.672v-617.472h-46.080v724.48h36.352q7.168 0 11.264-1.536t8.192-8.192l292.352-503.808z" />
<glyph unicode="&#x4e;" glyph-name="uni4E" horiz-adv-x="773" d="M133.12 860.16q7.168 0 11.008-1.792t8.448-7.936l469.504-627.712q-1.536 15.36-1.536 29.696v607.744h45.568v-724.48h-24.576q-6.656 0-11.008 2.304t-8.448 7.936l-470.528 628.224q1.536-15.36 1.536-28.672v-609.792h-46.080v724.48h26.112z" />
<glyph unicode="&#x4f;" glyph-name="uni4F" horiz-adv-x="810" d="M750.592 498.176q0-83.968-25.088-152.32t-70.656-116.736-109.312-74.752-140.544-26.368-140.288 26.368-109.056 74.752-70.656 116.736-25.088 152.32q0 83.456 25.088 151.808t70.656 116.736 109.056 75.008 140.288 26.624 140.544-26.368 109.312-75.008 70.656-116.992 25.088-151.808zM696.32 498.176q0 75.776-20.992 136.192t-59.392 102.4-92.16 64.256-118.784 22.272q-64.512 0-118.272-22.272t-92.416-64.256-59.904-102.4-21.248-136.192q0-76.288 21.248-136.448t59.904-102.144 92.416-64 118.272-22.016q65.024 0 118.784 22.016t92.16 64 59.392 102.144 20.992 136.448z" />
<glyph unicode="&#x50;" glyph-name="uni50" horiz-adv-x="592" d="M159.744 427.52v-291.84h-52.736v724.48h187.392q127.488 0 192.256-55.808t64.768-159.232q0-47.616-17.92-87.552t-51.2-68.864-80.896-45.056-107.008-16.128h-134.656zM159.744 469.504h134.656q47.616 0 85.504 13.312t64.256 36.864 40.448 55.552 14.080 69.888q0 83.456-51.2 128.512t-153.088 45.056h-134.656v-349.184z" />
<glyph unicode="&#x51;" glyph-name="uni51" horiz-adv-x="810" d="M750.592 498.176q0-54.784-11.008-103.168t-31.488-89.088-49.92-72.96-66.304-55.296l188.416-201.728h-44.032q-19.968 0-32.768 12.8l-154.624 166.912q-64.512-27.648-143.872-27.648-76.8 0-140.288 26.368t-109.056 74.752-70.656 116.736-25.088 152.32q0 83.456 25.088 151.808t70.656 116.736 109.056 75.008 140.288 26.624 140.544-26.368 109.312-75.008 70.656-116.992 25.088-151.808zM696.32 498.176q0 75.776-20.992 136.192t-59.392 102.4-92.16 64.256-118.784 22.272q-64.512 0-118.272-22.272t-92.416-64.256-59.904-102.4-21.248-136.192q0-76.288 21.248-136.448t59.904-102.144 92.416-64 118.272-22.016q65.024 0 118.784 22.016t92.16 64 59.392 102.144 20.992 136.448z" />
<glyph unicode="&#x52;" glyph-name="uni52" horiz-adv-x="622" d="M159.744 463.36v-327.68h-52.736v724.48h185.344q124.928 0 187.136-48.384t62.208-142.080q0-41.472-14.592-75.776t-41.472-60.16-65.024-42.496-85.248-21.76q12.288-7.68 22.016-20.48l249.344-313.344h-45.056q-8.704 0-14.592 2.816t-11.008 10.496l-232.448 293.888q-4.096 5.632-8.448 9.728t-9.728 6.4-12.8 3.328-18.176 1.024h-94.72zM159.744 502.272h125.44q48.128 0 86.272 11.52t64.512 33.024 40.192 51.712 13.824 68.096q0 77.312-50.432 114.688t-147.2 37.376h-132.608v-316.416z" />
<glyph unicode="&#x53;" glyph-name="uni53" horiz-adv-x="548" d="M458.752 772.096q-4.608-8.704-13.312-8.704-6.656 0-17.152 9.472t-28.416 20.992-44.8 21.248-66.304 9.728-69.376-11.264-50.176-30.72-30.72-45.056-10.496-53.76q0-36.864 15.616-60.928t41.216-40.96 58.112-28.416 66.816-22.784 66.816-24.832 58.112-34.048 41.216-50.432 15.616-74.496q0-45.568-15.616-85.76t-45.312-69.888-72.704-46.848-98.304-17.152q-71.68 0-123.392 25.344t-90.624 69.376l14.336 22.528q6.144 7.68 14.336 7.68 4.608 0 11.776-6.144t17.408-15.104 24.576-19.456 33.28-19.456 43.52-15.104 55.808-6.144q43.008 0 76.8 13.056t57.088 35.584 35.584 53.504 12.288 66.304q0 38.4-15.616 63.232t-41.216 41.472-58.112 27.904-66.816 22.016-66.816 24.064-58.112 34.048-41.216 51.712-15.616 77.568q0 36.352 13.824 70.144t40.448 59.648 65.792 41.472 89.344 15.616q56.32 0 101.12-17.92t81.664-54.784z" />
<glyph unicode="&#x54;" glyph-name="uni54" horiz-adv-x="593" d="M578.048 860.16v-44.544h-254.464v-679.936h-52.736v679.936h-256v44.544h563.2z" />
<glyph unicode="&#x55;" glyph-name="uni55" horiz-adv-x="744" d="M372.224 173.056q52.224 0 93.44 18.176t69.888 50.432 43.776 76.032 15.104 94.464v448h52.224v-448q0-59.904-18.944-111.872t-54.528-90.624-86.528-60.672-114.432-22.016-114.432 22.016-86.528 60.672-54.528 90.624-18.944 111.872v448h52.736v-447.488q0-50.688 15.104-94.464t43.52-76.032 69.632-50.688 93.44-18.432z" />
<glyph unicode="&#x56;" glyph-name="uni56" horiz-adv-x="671" d="M13.312 860.16h41.472q7.168 0 11.776-3.84t7.168-9.984l246.784-601.088q4.096-11.264 8.192-24.064t7.168-26.112q3.072 13.312 6.912 26.112t8.448 24.064l246.272 601.088q2.048 5.632 7.168 9.728t12.288 4.096h40.96l-299.008-724.48h-46.592z" />
<glyph unicode="&#x57;" glyph-name="uni57" horiz-adv-x="1041" d="M24.064 860.16h43.52q14.848 0 18.944-13.824l182.784-595.456q5.632-20.48 10.24-46.592 2.56 12.8 5.12 24.576t6.144 22.016l204.8 595.456q2.048 5.632 7.168 9.728t12.288 4.096h14.336q7.168 0 11.776-3.84t7.168-9.984l204.8-595.456q3.584-10.24 6.4-21.504t5.376-24.064q2.56 12.288 4.864 23.808t4.864 21.76l182.784 595.456q1.536 5.632 6.912 9.728t12.544 4.096h39.936l-227.84-724.48h-47.104l-214.016 628.736q-4.096 12.288-7.168 26.112-3.072-13.824-7.168-26.112l-214.528-628.736h-46.592z" />
<glyph unicode="&#x58;" glyph-name="uni58" horiz-adv-x="638" d="M282.112 507.392l-249.856 352.768h51.712q7.168 0 10.496-3.072t5.888-7.168l220.16-317.44q1.536 4.096 3.328 7.936t4.352 7.936l212.48 301.056q2.56 4.608 6.4 7.68t8.96 3.072h50.176l-250.368-350.208 260.608-374.272h-51.712q-7.168 0-11.264 4.352t-6.656 8.448l-228.352 333.824q-2.048-7.68-7.168-14.848l-224.256-318.976q-3.584-4.608-7.424-8.704t-9.984-4.096h-49.152z" />
<glyph unicode="&#x59;" glyph-name="uni59" horiz-adv-x="609" d="M330.752 434.176v-298.496h-52.224v298.496l-268.288 425.984h46.080q7.168 0 11.776-3.328t7.68-9.472l207.36-332.8q6.656-11.776 12.032-22.784t9.472-21.76q4.096 10.752 9.472 21.76t12.032 22.784l207.36 332.8q2.56 5.632 7.424 9.216t12.032 3.584h46.080z" />
<glyph unicode="&#x5a;" glyph-name="uni5A" horiz-adv-x="612" d="M572.416 860.16v-17.92q0-9.728-7.168-20.992l-459.776-642.048h463.36v-43.52h-533.504v18.944q0 5.632 1.792 9.984t4.352 8.448l460.8 643.584h-453.632v43.52h523.776z" />
<glyph unicode="&#x5b;" glyph-name="uni5B" horiz-adv-x="304" d="M103.424 0.512v911.872h162.816v-18.432q0-6.656-4.352-10.752t-11.52-4.096h-105.472v-845.312h105.472q7.168 0 11.52-4.096t4.352-10.752v-18.432h-162.816z" />
<glyph unicode="&#x5c;" glyph-name="uni5C" horiz-adv-x="445" d="M38.912 880.64h20.992q19.968 0 27.648-18.944l318.464-769.024h-19.968q-8.704 0-16.896 4.864t-12.288 15.104z" />
<glyph unicode="&#x5d;" glyph-name="uni5D" horiz-adv-x="304" d="M37.888 18.944q0 6.656 4.096 10.752t11.264 4.096h105.472v845.312h-105.472q-7.168 0-11.264 4.096t-4.096 10.752v18.432h162.304v-911.872h-162.304v18.432z" />
<glyph unicode="&#x5e;" glyph-name="uni5E" horiz-adv-x="594" d="M505.344 501.76h-34.816q-5.632 0-9.984 3.328t-6.912 8.448l-142.848 266.752q-8.704 16.896-14.336 34.304-2.56-8.704-5.888-17.152t-7.424-17.152l-140.8-266.752q-2.048-4.096-6.4-7.936t-11.52-3.84h-35.84l192.512 358.4h30.208z" />
<glyph unicode="&#x5f;" glyph-name="uni5F" horiz-adv-x="461" d="M432.128 30.72v-34.816h-403.456v34.816h403.456z" />
<glyph unicode="&#x60;" glyph-name="uni60" d="M146.432 868.352q12.288 0 18.432-3.584t11.776-12.8l80.384-121.856h-28.16q-6.144 0-10.496 1.792t-8.448 6.912l-110.592 129.536h47.104z" />
<glyph unicode="&#x61;" glyph-name="uni61" horiz-adv-x="496" d="M397.312 135.68q-15.36 0-18.944 14.336l-7.168 65.024q-20.992-20.48-41.728-36.864t-43.264-27.648-48.64-17.152-57.344-5.888q-26.112 0-50.688 7.68t-43.776 23.552-30.72 40.704-11.52 59.648q0 32.256 18.432 59.904t57.856 48.128 101.12 32.768 148.224 14.336v53.248q0 70.656-30.464 108.8t-90.368 38.144q-36.864 0-62.72-10.24t-43.776-22.528-29.184-22.528-18.944-10.24q-5.632 0-9.216 2.56t-6.144 6.656l-8.704 14.848q39.936 39.936 83.968 60.416t99.84 20.48q40.96 0 71.68-13.056t50.944-37.376 30.464-58.88 10.24-77.056v-331.776h-19.456zM192.512 162.816q29.696 0 54.528 6.4t46.080 17.92 39.68 27.392 36.352 34.304v132.608q-72.704-2.048-125.44-11.008t-86.784-24.32-50.176-36.608-16.128-48.384q0-25.6 8.448-44.288t22.528-30.72 32.512-17.664 38.4-5.632z" />
<glyph unicode="&#x62;" glyph-name="uni62" horiz-adv-x="564" d="M83.968 135.68v744.96h49.152v-324.096q33.28 45.056 77.824 70.912t103.424 25.856q46.080 0 82.432-16.896t61.696-48.64 38.656-78.080 13.312-105.216q0-61.952-14.848-112.896t-43.264-87.040-69.376-55.808-93.696-19.712q-54.272 0-92.672 20.736t-66.048 61.184l-3.072-62.464q-1.536-12.8-13.824-12.8h-29.696zM300.544 614.4q-54.784 0-95.232-26.112t-72.192-72.704v-268.8q29.696-44.032 65.024-61.696t80.384-17.664q45.568 0 79.616 16.384t56.832 46.848 34.048 73.984 11.264 97.792q0 105.472-41.984 158.72t-117.76 53.248z" />
<glyph unicode="&#x63;" glyph-name="uni63" horiz-adv-x="483" d="M426.496 577.024q-2.56-2.56-4.864-4.352t-6.4-1.792q-5.12 0-13.824 6.912t-23.552 15.104-37.12 15.104-54.016 6.912q-44.032 0-78.080-15.616t-57.6-44.8-35.584-70.656-12.032-93.184q0-53.76 12.544-95.232t35.584-69.888 55.808-43.264 72.704-14.848q36.864 0 61.696 8.704t40.96 18.944 25.344 18.944 15.36 8.704 10.24-5.12l12.8-16.384q-11.776-15.36-29.696-28.672t-40.448-23.040-48.896-15.104-55.040-5.376q-48.64 0-88.832 17.664t-69.12 51.2-45.056 82.176-16.128 110.592q0 58.368 15.36 106.496t45.056 82.944 72.448 54.016 98.048 19.2q49.664 0 88.064-15.872t67.072-43.008z" />
<glyph unicode="&#x64;" glyph-name="uni64" horiz-adv-x="564" d="M453.632 135.68q-13.312 0-15.36 13.312l-5.12 80.384q-33.792-46.080-78.848-73.216t-101.376-27.136q-94.208 0-146.432 65.024t-52.224 195.072q0 55.808 14.592 104.192t42.752 83.968 69.376 56.064 94.976 20.48q51.712 0 89.6-19.2t66.048-56.064v302.080h48.64v-744.96h-26.624zM266.752 168.448q50.176 0 91.392 26.112t73.472 73.216v267.264q-29.184 44.032-64.768 62.208t-81.152 18.176q-45.056 0-78.848-16.384t-56.576-46.336-34.304-71.68-11.52-91.904q0-113.664 41.728-167.168t120.576-53.504z" />
<glyph unicode="&#x65;" glyph-name="uni65" horiz-adv-x="534" d="M283.136 653.312q43.008 0 79.872-14.848t64-43.264 42.752-69.888 15.616-95.232q0-11.264-3.072-15.36t-10.24-4.096h-370.688v-9.728q0-57.344 13.312-100.864t37.888-72.96 59.392-44.288 77.824-14.848q38.4 0 66.56 8.448t47.36 18.944 30.464 18.944 16.384 8.448q6.656 0 10.24-5.12l13.312-16.384q-12.288-15.36-32.512-28.672t-45.056-22.784-53.248-15.104-57.088-5.632q-52.224 0-95.232 18.176t-73.728 52.992-47.36 85.248-16.64 115.456q0 54.784 15.616 101.12t45.056 79.872 72.192 52.48 97.024 18.944zM283.648 616.96q-39.424 0-70.656-12.288t-54.016-35.328-36.864-55.296-18.688-72.192h337.92q0 40.96-11.52 73.472t-32.512 55.040-49.92 34.56-63.744 12.032z" />
<glyph unicode="&#x66;" glyph-name="uni66" horiz-adv-x="349" d="M114.176 135.68v456.192l-71.68 4.608q-14.336 1.536-14.336 12.8v19.968h86.016v64.512q0 43.52 11.264 76.544t31.744 55.040 49.152 33.024 63.488 11.008q15.872 0 32-2.816t28.928-7.936l-1.536-23.552q-1.024-4.608-4.352-5.888t-9.472-1.024-15.872 1.536-22.528 1.28q-25.088 0-46.336-7.424t-36.608-23.808-23.808-42.752-8.448-64.768v-62.976h165.376v-36.352h-163.84v-457.216h-49.152z" />
<glyph unicode="&#x67;" glyph-name="uni67" horiz-adv-x="523" d="M250.368 653.824q33.792 0 61.952-8.192t51.2-23.040h130.56v-16.896q0-11.264-14.336-13.824l-77.824-5.632q14.336-19.456 22.016-43.776t7.68-51.968q0-36.864-13.056-66.816t-36.864-51.2-57.344-33.024-73.984-11.776q-44.032 0-79.36 13.312-21.504-12.8-34.048-29.44t-12.544-32.512q0-22.016 15.616-33.792t40.96-17.152 57.856-6.912 66.304-3.328 66.304-6.4 57.856-16.128 40.96-32.256 15.616-55.040q0-31.744-15.872-60.928t-45.824-51.712-72.448-36.096-95.232-13.568q-53.76 0-94.208 11.008t-67.84 29.696-41.216 43.264-13.824 52.224q0 40.448 26.624 69.376t72.704 45.312q-26.112 8.704-41.472 25.088t-15.36 45.568q0 10.752 4.096 22.528t12.288 23.296 19.968 21.76 26.624 18.432q-36.352 20.992-56.576 55.808t-20.224 81.408q0 36.864 13.056 66.816t37.12 51.456 57.6 33.28 74.496 11.776zM440.832 101.376q0 24.064-12.544 38.656t-33.536 22.784-48.64 11.264-57.344 4.864-59.904 3.328-56.832 6.144q-19.456-7.68-35.84-17.92t-28.16-22.784-18.432-27.648-6.656-32.512q0-22.528 11.52-41.728t33.792-33.28 54.528-22.272 74.24-8.192q38.912 0 72.448 8.704t58.368 24.576 38.912 37.888 14.080 48.128zM250.368 360.96q32.768 0 58.368 9.472t43.008 26.368 26.624 40.448 9.216 52.224-9.472 52.48-27.136 40.704-43.008 26.112-57.6 9.216-57.6-9.216-43.008-26.112-26.88-40.704-9.216-52.48 9.216-52.224 26.88-40.448 43.008-26.368 57.6-9.472z" />
<glyph unicode="&#x68;" glyph-name="uni68" horiz-adv-x="563" d="M83.968 135.68v744.96h49.152v-322.048q35.328 43.52 80.64 69.12t101.632 25.6q41.984 0 73.984-13.312t52.992-38.4 31.744-60.416 10.752-79.872v-325.632h-49.152v325.632q0 71.68-32.768 112.384t-99.84 40.704q-50.176 0-93.184-25.344t-76.8-70.4v-382.976h-49.152z" />
<glyph unicode="&#x69;" glyph-name="uni69" horiz-adv-x="228" d="M138.24 645.12v-509.44h-48.64v509.44h48.64zM159.232 820.736q0-9.216-3.84-17.152t-9.984-14.080-14.336-9.728-17.408-3.584-17.408 3.584-14.336 9.728-9.728 14.080-3.584 17.152 3.584 17.664 9.728 14.592 14.336 9.728 17.408 3.584 17.408-3.584 14.336-9.728 9.984-14.592 3.84-17.664z" />
<glyph unicode="&#x6a;" glyph-name="uni6A" horiz-adv-x="228" d="M138.24 645.12v-574.464q0-26.624-7.68-49.152t-22.784-39.168-37.888-26.112-53.504-9.472q-14.848 0-26.624 2.56t-23.040 8.192l2.56 24.576q1.536 4.608 4.096 5.376t6.912 0 11.008-2.048 16.896-1.28q41.472 0 61.44 22.528t19.968 64v574.464h48.64zM159.232 820.736q0-9.216-3.84-17.152t-10.24-14.080-14.592-9.728-17.408-3.584-17.408 3.584-14.336 9.728-9.728 14.080-3.584 17.152 3.584 17.664 9.728 14.592 14.336 9.728 17.408 3.584 17.408-3.584 14.592-9.728 10.24-14.592 3.84-17.664z" />
<glyph unicode="&#x6b;" glyph-name="uni6B" horiz-adv-x="487" d="M133.12 880.64v-454.144h23.552q7.168 0 13.568 2.048t14.080 9.728l204.288 194.048q5.12 6.144 11.264 9.472t15.36 3.328h43.008l-224.768-213.504q-9.216-10.752-19.968-16.896 8.192-4.096 14.080-9.472t11.52-12.544l236.032-257.024h-42.496q-7.168 0-13.056 2.304t-11.008 9.472l-214.016 229.376q-4.096 4.608-7.936 7.68t-7.936 4.864-9.472 2.56-13.056 0.768h-23.040v-257.024h-49.152v744.96h49.152z" />
<glyph unicode="&#x6c;" glyph-name="uni6C" horiz-adv-x="226" d="M137.728 880.64v-744.96h-49.152v744.96h49.152z" />
<glyph unicode="&#x6d;" glyph-name="uni6D" horiz-adv-x="824" d="M83.968 135.68v509.44h27.136q12.8 0 14.848-12.8l4.608-73.728q29.696 42.496 68.096 68.608t86.528 26.112q55.808 0 89.344-32.256t45.312-89.6q9.216 31.232 25.856 54.272t38.144 38.144 46.848 22.272 51.968 7.168q37.888 0 68.096-12.544t51.2-37.12 32.256-60.416 11.264-81.92v-325.632h-48.64v325.632q0 74.752-32.256 113.92t-92.16 39.168q-26.624 0-50.944-9.728t-43.008-28.928-29.696-47.872-11.008-66.56v-325.632h-49.152v325.632q0 74.24-29.44 113.664t-86.272 39.424q-41.472 0-76.8-24.576t-62.976-68.096v-386.048h-49.152z" />
<glyph unicode="&#x6e;" glyph-name="uni6E" horiz-adv-x="563" d="M83.968 135.68v509.44h27.136q12.8 0 14.848-12.8l4.608-76.8q35.328 44.544 81.408 71.168t103.424 26.624q41.984 0 73.984-13.312t52.992-38.4 31.744-60.416 10.752-79.872v-325.632h-49.152v325.632q0 71.68-32.768 112.384t-99.84 40.704q-50.176 0-93.184-25.344t-76.8-70.4v-382.976h-49.152z" />
<glyph unicode="&#x6f;" glyph-name="uni6F" horiz-adv-x="571" d="M285.696 653.312q54.784 0 98.048-18.688t72.96-52.992 45.312-82.688 15.616-108.288-15.616-108.032-45.312-82.432-72.96-52.736-98.048-18.432-98.048 18.432-73.216 52.736-45.568 82.432-15.616 108.032 15.616 108.288 45.568 82.688 73.216 52.992 98.048 18.688zM285.696 167.424q45.568 0 79.616 15.616t56.832 44.8 34.048 70.4 11.264 92.416q0 50.688-11.264 92.16t-34.048 70.912-56.832 45.312-79.616 15.872-79.616-15.872-56.832-45.312-34.304-70.912-11.52-92.16q0-51.2 11.52-92.416t34.304-70.4 56.832-44.8 79.616-15.616z" />
<glyph unicode="&#x70;" glyph-name="uni70" horiz-adv-x="565" d="M83.968-44.544v689.664h27.136q12.8 0 14.848-12.8l4.608-78.848q33.792 46.080 79.36 73.216t101.888 27.136q93.696 0 146.176-65.024t52.48-195.072q0-55.808-14.592-104.192t-43.008-83.968-69.632-56.064-94.976-20.48q-51.712 0-89.6 18.944t-65.536 55.808v-248.32h-49.152zM297.984 614.4q-50.688 0-91.648-26.112t-73.216-72.704v-268.8q29.184-44.032 64.512-61.696t81.408-17.664q45.056 0 78.848 16.384t56.576 46.336 34.304 71.68 11.52 91.904q0 113.664-41.984 167.168t-120.32 53.504z" />
<glyph unicode="&#x71;" glyph-name="uni71" horiz-adv-x="564" d="M480.256 645.12v-689.664h-48.64v271.36q-33.792-45.056-78.336-71.424t-100.352-26.368q-94.208 0-146.432 65.024t-52.224 195.072q0 55.808 14.592 104.192t42.752 83.968 69.376 56.064 94.976 20.48q52.736 0 91.136-19.968t66.56-58.368l4.608 56.832q2.048 12.8 15.36 12.8h26.624zM266.752 168.448q50.176 0 91.392 26.112t73.472 73.216v267.776q-27.648 42.496-64 61.184t-81.92 18.688q-45.056 0-78.848-16.384t-56.576-46.336-34.304-71.68-11.52-91.904q0-113.664 41.728-167.168t120.576-53.504z" />
<glyph unicode="&#x72;" glyph-name="uni72" horiz-adv-x="362" d="M83.968 135.68v509.44h26.112q8.704 0 12.288-3.584t4.608-12.288l3.584-107.008q11.776 31.232 26.88 55.552t34.816 41.216 44.032 25.856 54.016 8.96q15.872 0 31.232-2.816t27.136-9.984l-4.096-33.792q-2.56-8.192-9.728-8.192-6.144 0-18.688 3.584t-33.024 3.584q-29.696 0-52.736-9.216t-40.96-26.88-31.488-44.032-24.832-60.672v-329.728h-49.152z" />
<glyph unicode="&#x73;" glyph-name="uni73" horiz-adv-x="435" d="M364.032 582.144q-4.096-7.168-11.776-7.168-5.632 0-14.336 6.4t-23.296 14.336-36.096 14.336-52.224 6.4q-27.648 0-50.432-7.936t-38.912-21.248-24.832-30.976-8.704-37.12q0-24.064 12.288-39.936t32-27.136 45.312-19.456 51.968-16.384 51.968-18.176 45.312-24.832 32-36.352 12.288-52.224q0-33.28-11.776-61.952t-34.56-49.664-56.064-33.28-76.288-12.288q-53.76 0-92.672 17.152t-69.632 44.8l11.264 17.408q2.56 4.096 5.888 6.144t8.96 2.048q6.656 0 16.128-8.192t25.344-17.664 39.168-17.664 57.6-8.192q32.256 0 56.832 8.96t40.96 24.32 24.832 36.096 8.448 43.776q0 25.6-12.288 42.496t-32.256 28.672-45.312 19.968-51.968 16.384-51.968 17.92-45.312 24.576-32.256 36.096-12.288 52.992q0 27.136 11.776 52.224t33.536 44.032 52.992 30.208 70.144 11.264q46.592 0 82.688-13.312t65.792-40.96z" />
<glyph unicode="&#x74;" glyph-name="uni74" horiz-adv-x="351" d="M223.232 127.488q-51.712 0-80.64 28.672t-28.928 88.576v348.16h-73.216q-5.632 0-9.216 3.072t-3.584 8.704v18.944l87.040 6.144 12.288 182.272q1.024 4.608 4.096 8.192t8.704 3.584h23.040v-194.56h160.768v-36.352h-160.768v-345.6q0-20.992 5.376-36.096t14.848-24.832 22.272-14.336 27.648-4.608q18.432 0 31.744 5.376t23.040 11.776 15.872 11.776 9.728 5.376q4.096 0 8.192-5.12l13.312-21.504q-19.456-21.504-49.408-34.56t-62.208-13.056z" />
<glyph unicode="&#x75;" glyph-name="uni75" horiz-adv-x="563" d="M127.488 645.12v-325.632q0-71.68 32.768-112.384t99.84-40.704q49.664 0 92.672 25.344t77.312 70.4v382.976h49.152v-509.44h-27.136q-12.8 0-14.848 13.312l-4.608 75.776q-35.328-44.032-81.664-70.656t-103.168-26.624q-42.496 0-74.24 13.312t-52.736 38.4-31.744 60.416-10.752 79.872v325.632h49.152z" />
<glyph unicode="&#x76;" glyph-name="uni76" horiz-adv-x="514" d="M278.016 135.68h-43.008l-215.040 509.44h38.4q7.168 0 11.776-3.84t6.144-8.448l168.448-401.92q7.68-22.016 12.288-44.032 4.608 22.016 12.8 44.032l168.96 401.92q2.56 5.632 6.912 8.96t10.496 3.328h36.864z" />
<glyph unicode="&#x77;" glyph-name="uni77" horiz-adv-x="783" d="M25.6 645.12h36.864q7.168 0 11.776-3.84t6.144-8.448l128.512-401.92q3.072-11.776 5.376-22.784t4.352-21.76q2.56 10.752 5.888 21.76t7.424 22.784l136.192 405.504q3.584 11.264 14.336 11.264h19.968q11.264 0 14.848-11.264l135.168-405.504q3.584-11.776 6.4-22.528t5.376-22.016q2.56 10.752 4.864 21.76t5.888 22.784l129.536 401.92q2.048 5.632 6.656 8.96t10.752 3.328h35.328l-169.984-509.44h-36.352q-8.704 0-11.776 10.752l-139.264 413.696q-2.56 7.68-4.608 15.36t-3.584 14.848q-1.536-7.68-3.328-15.104t-4.352-15.104l-141.312-413.696q-3.072-10.752-12.288-10.752h-34.816z" />
<glyph unicode="&#x78;" glyph-name="uni78" horiz-adv-x="480" d="M206.848 396.288l-177.664 248.832h46.592q7.168 0 10.752-3.072t6.144-7.168l149.504-215.552q2.56 9.728 8.192 17.92l139.776 197.12q3.072 4.608 6.656 7.68t9.216 3.072h44.544l-177.664-246.272 184.832-263.168h-46.592q-7.168 0-11.264 4.352t-6.656 8.448l-154.624 225.792q-2.56-10.24-7.68-17.92l-147.456-207.872q-3.584-4.608-7.424-8.704t-9.984-4.096h-44.032z" />
<glyph unicode="&#x79;" glyph-name="uni79" horiz-adv-x="514" d="M202.752-28.16q-3.072-7.168-7.936-11.776t-14.080-4.608h-34.816l89.6 199.168-215.552 490.496h40.448q7.68 0 12.288-3.84t6.144-8.448l171.52-396.288q3.072-7.68 5.376-15.616t4.352-16.128q2.56 8.192 5.376 16.128t5.888 15.616l169.472 396.288q2.56 5.632 7.168 8.96t10.24 3.328h37.376z" />
<glyph unicode="&#x7a;" glyph-name="uni7A" horiz-adv-x="454" d="M418.304 624.64q0-10.752-7.168-19.456l-318.976-431.104h313.344v-38.4h-372.224v19.456q0 8.704 7.68 18.944l320 432.64h-310.784v38.4h368.128v-20.48z" />
<glyph unicode="&#x7b;" glyph-name="uni7B" horiz-adv-x="302" d="M121.344 363.52q0 16.896-5.632 30.976t-16.128 24.576-25.088 16.128-32.512 5.632v31.232q17.92 0 32.512 5.632t25.088 16.128 16.128 24.576 5.632 30.976q0 28.16-4.864 54.784t-10.496 53.248-10.496 53.504-4.864 55.552q0 31.232 9.728 57.856t28.16 46.336 45.312 30.72 60.672 11.008h28.16v-21.504q0-5.632-4.096-8.704t-8.704-3.072h-16.896q-22.016 0-40.192-7.68t-31.232-22.016-20.48-34.816-7.424-45.568q0-29.184 4.608-56.832t10.24-54.528 10.24-53.76 4.608-54.016q0-18.944-6.144-34.816t-16.64-27.648-24.064-19.712-28.416-11.52q14.848-3.072 28.416-11.008t24.064-19.968 16.64-27.648 6.144-34.56q0-27.136-4.608-54.016t-10.24-54.016-10.24-54.784-4.608-56.32q0-25.088 7.424-45.568t20.48-34.816 31.232-22.016 40.192-7.68h16.896q4.608 0 8.704-3.072t4.096-8.704v-21.504h-28.16q-33.792 0-60.672 11.008t-45.312 30.72-28.16 46.336-9.728 57.856q0 28.672 4.864 55.552t10.496 53.504 10.496 53.248 4.864 54.784z" />
<glyph unicode="&#x7c;" glyph-name="uni7C" horiz-adv-x="244" d="M102.912 912.384h38.4v-958.464h-38.4v958.464z" />
<glyph unicode="&#x7d;" glyph-name="uni7D" horiz-adv-x="302" d="M180.736 363.52q0-28.16 4.864-54.784t10.496-53.248 10.496-53.504 4.864-55.552q0-31.232-9.728-57.856t-28.16-46.336-45.312-30.72-60.672-11.008h-28.16v21.504q0 5.632 4.096 8.704t8.704 3.072h16.896q22.016 0 40.192 7.68t31.232 22.016 20.48 34.816 7.424 45.568q0 28.672-4.608 56.32t-10.24 54.784-10.24 54.016-4.608 54.016q0 18.944 6.144 34.56t16.64 27.648 24.064 19.968 28.416 11.008q-14.848 3.584-28.416 11.52t-24.064 19.712-16.64 27.648-6.144 34.816q0 27.136 4.608 54.016t10.24 53.76 10.24 54.528 4.608 56.832q0 25.088-7.424 45.568t-20.48 34.816-31.232 22.016-40.192 7.68h-16.896q-4.608 0-8.704 3.072t-4.096 8.704v21.504h28.16q33.792 0 60.672-11.008t45.312-30.72 28.16-46.336 9.728-57.856q0-28.672-4.864-55.552t-10.496-53.504-10.496-53.248-4.864-54.784q0-16.896 5.632-30.976t16.128-24.576 25.088-16.128 32.512-5.632v-31.232q-17.92 0-32.512-5.632t-25.088-16.128-16.128-24.576-5.632-30.976z" />
<glyph unicode="&#x7e;" glyph-name="uni7E" horiz-adv-x="594" d="M400.384 425.984q18.944 0 34.56 6.912t26.368 19.2 16.64 29.184 5.888 36.864h39.936q0-28.16-8.192-52.224t-23.552-41.984-37.888-28.16-51.2-10.24q-26.112 0-53.504 9.984t-54.272 22.272-51.968 22.272-47.104 9.984q-19.456 0-34.56-6.912t-25.856-19.2-16.64-29.184-6.4-36.864h-39.424q0 28.16 8.192 52.224t23.552 41.984 37.632 28.16 50.944 10.24q26.624 0 54.016-9.984t54.016-22.272 51.712-22.272 47.104-9.984z" />
<glyph unicode="&#xa1;" glyph-name="uniA1" horiz-adv-x="236" d="M94.208-44.544v281.6q0 23.040 0.512 43.52t1.536 41.728 2.56 44.8 3.072 52.224h32.768q1.536-28.672 3.072-52.224t2.56-44.8 1.536-41.728 0.512-43.52v-281.6h-48.128zM69.12 606.208q0 19.968 13.568 33.536t33.536 13.568 34.048-13.568 14.080-33.536q0-10.24-3.84-18.944t-10.24-15.104-15.36-10.24-18.688-3.84q-19.968 0-33.536 14.080t-13.568 34.048z" />
<glyph unicode="&#xa2;" glyph-name="uniA2" horiz-adv-x="594" d="M304.64 130.048q-49.152 3.072-89.6 22.016t-69.632 52.224-45.056 80.128-15.872 106.24q0 57.344 16.384 105.216t47.872 82.432 77.312 54.272 104.704 20.736l5.12 104.96q0.512 6.656 4.352 11.52t11.008 4.864h18.432l-6.144-122.88q44.544-4.096 79.104-18.944t61.696-38.4l-12.288-16.896q-2.56-2.56-4.864-4.352t-6.4-1.792q-4.608 0-13.056 5.888t-22.528 13.312-34.56 14.336-49.152 9.472l-22.016-447.488q38.4 1.024 64.512 9.728t43.264 18.688 27.136 18.176 15.616 8.192 10.24-4.608l12.288-15.872q-11.776-14.848-29.44-27.392t-40.192-22.016-49.152-15.36-56.32-6.912l-5.12-107.52q-0.512-6.656-4.352-11.264t-11.008-4.608h-18.432zM132.608 390.656q0-50.176 12.032-89.856t34.816-68.096 54.784-44.8 71.936-19.968l22.528 446.976q-47.104-1.536-83.712-17.664t-61.44-45.056-37.888-69.888-13.056-91.648z" />
<glyph unicode="&#xa3;" glyph-name="uniA3" horiz-adv-x="594" d="M31.232 475.648q0 7.68 4.864 12.8t13.568 5.12h84.48v150.528q0 47.616 13.312 88.576t39.68 70.912 66.048 47.104 91.904 17.152q38.912 0 68.608-9.472t51.968-25.856 38.144-38.4 27.136-46.592l-19.456-11.264q-7.68-3.584-14.336-2.56t-12.288 8.704q-10.24 15.872-21.76 30.976t-27.392 26.88-37.888 18.688-52.736 6.912q-39.936 0-69.888-13.312t-50.432-37.12-30.72-57.344-10.24-73.984v-150.528h245.248v-19.968q0-5.632-4.352-9.984t-11.008-4.352h-229.888v-155.648q0-45.568-18.432-76.544t-50.688-52.992q11.264 2.048 22.272 3.072t22.784 1.024h402.944v-20.48q0-7.68-6.144-14.848t-16.384-7.168h-496.64v33.28q17.408 6.656 33.792 16.896t29.184 25.088 20.224 34.816 7.424 46.592v166.912h-102.912v16.384z" />
<glyph unicode="&#xa4;" glyph-name="uniA4" horiz-adv-x="594" d="M121.344 479.232q0 31.744 10.24 59.648t28.672 50.944l-78.848 78.848 25.088 25.6 78.848-78.848q23.040 18.432 51.2 29.184t60.416 10.752q31.744 0 59.648-10.496t50.944-28.928l78.848 78.848 25.088-25.6-78.336-78.336q18.432-23.040 29.184-51.2t10.752-60.416q0-31.744-10.496-59.648t-28.928-50.944l78.848-78.848-25.6-25.6-78.848 78.848q-23.040-18.432-51.2-28.928t-59.904-10.496-59.648 10.24-50.944 28.672l-79.36-78.848-25.088 25.6 78.848 78.336q-18.432 23.040-28.928 51.2t-10.496 60.416zM158.208 479.232q0-28.672 11.008-53.76t29.696-43.776 44.032-29.696 54.016-11.008 54.016 11.008 44.288 29.696 29.952 43.776 11.008 53.76-11.008 54.016-29.952 44.288-44.288 29.952-54.016 11.008-54.016-11.008-44.032-29.952-29.696-44.288-11.008-54.016z" />
<glyph unicode="&#xa5;" glyph-name="uniA5" horiz-adv-x="594" d="M84.992 451.072h177.152l-216.064 409.088h40.96q13.824 0 19.456-12.8l177.152-340.48q4.096-10.24 7.424-19.456t5.888-17.92q2.56 9.216 5.888 18.176t7.424 19.2l177.152 340.48q2.56 5.632 7.424 9.216t12.032 3.584h40.96l-216.576-409.088h177.664v-29.696h-187.392v-60.416h187.392v-29.696h-187.392v-195.584h-49.152v195.584h-187.392v29.696h187.392v60.416h-187.392v29.696z" />
<glyph unicode="&#xa6;" glyph-name="uniA6" horiz-adv-x="247" d="M104.448 912.384h38.4v-398.336h-38.4v398.336zM104.448 353.28h38.4v-397.824h-38.4v397.824z" />
<glyph unicode="&#xa7;" glyph-name="uniA7" horiz-adv-x="497" d="M401.92 796.672q-3.584-6.656-11.264-6.656-5.632 0-14.592 6.4t-23.552 14.080-35.84 14.080-51.968 6.4q-28.672 0-51.968-7.936t-39.68-21.504-25.344-31.488-8.96-37.888q0-23.552 12.8-40.96t33.792-31.488 47.616-25.856 54.528-24.064 54.528-26.368 47.616-32 33.792-41.728 12.8-55.552q0-42.496-21.504-73.984t-63.488-49.408q27.648-19.456 44.8-44.544t17.152-60.416q0-33.28-12.032-61.952t-34.816-49.664-56.064-33.28-75.776-12.288q-53.76 0-92.672 17.152t-69.632 44.8l11.776 17.408q2.56 4.096 5.632 6.144t8.704 2.048q6.656 0 16.384-8.192t25.6-17.664 39.424-17.664 58.368-8.192q31.744 0 56.32 8.704t41.472 24.064 25.6 36.096 8.704 44.8q0 26.112-13.312 45.568t-35.328 34.56-49.92 27.392-56.832 24.576-56.832 25.6-49.92 30.976-35.328 40.448-13.312 54.016q0 39.424 23.296 70.912t76.032 50.432q-28.16 18.944-45.824 44.288t-17.664 63.232q0 27.648 11.776 52.48t33.536 44.032 52.992 30.464 70.144 11.264q46.592 0 82.688-13.568t66.304-40.704zM102.912 507.904q0-20.992 9.984-37.632t27.136-30.208 39.68-25.088 47.104-22.272 49.92-21.76 48.384-23.808q36.352 16.384 52.224 40.96t15.872 55.808q0 23.040-9.216 40.96t-24.832 32-36.352 25.344-43.776 21.76-46.848 20.48-45.824 21.76q-45.568-19.456-64.512-43.52t-18.944-54.784z" />
<glyph unicode="&#xa8;" glyph-name="uniA8" d="M156.672 793.088q0-8.192-3.584-15.616t-9.472-13.056-13.568-8.96-15.872-3.328q-8.704 0-16.128 3.328t-13.312 8.96-9.216 13.056-3.328 15.616q0 8.704 3.328 16.384t9.216 13.568 13.312 9.216 16.128 3.328q8.192 0 15.872-3.328t13.568-9.216 9.472-13.568 3.584-16.384zM336.896 793.088q0-8.192-3.584-15.616t-9.216-13.056-13.312-8.96-15.872-3.328q-8.704 0-16.384 3.328t-13.312 8.96-8.96 13.056-3.328 15.616q0 17.408 12.288 29.952t29.696 12.544q8.192 0 15.872-3.328t13.312-9.216 9.216-13.568 3.584-16.384z" />
<glyph unicode="&#xa9;" glyph-name="uniA9" horiz-adv-x="861" d="M579.584 353.792q5.12 0.512 8.704-2.048l17.408-17.92q-30.208-30.208-71.168-48.128t-100.352-17.92q-49.152 0-90.112 16.64t-70.4 46.848-45.824 72.704-16.384 94.72q0 51.2 17.152 93.696t47.616 72.96 72.96 47.36 93.184 16.896q26.624 0 48.896-3.84t41.216-11.264 35.584-17.92 32-24.32l-11.776-16.896q-3.584-5.632-10.752-5.632-4.608 0-13.056 6.656t-23.552 14.592-38.4 14.592-58.112 6.656q-42.496 0-77.312-13.568t-59.648-38.656-38.4-60.928-13.568-80.384q0-46.080 13.568-81.92t37.888-60.672 57.344-37.888 71.936-13.056q28.16 0 48.64 3.84t36.864 10.24 29.952 15.36 27.904 19.2zM60.928 498.176q0 50.688 13.312 98.048t37.376 88.32 57.856 74.752 74.752 57.856 88.064 37.376 98.304 13.312q50.688 0 98.048-13.312t88.32-37.376 74.752-57.856 57.856-74.752 37.376-88.32 13.312-98.048q0-51.2-13.312-98.304t-37.376-88.064-57.856-74.752-74.752-57.856-88.32-37.376-98.048-13.312q-51.2 0-98.304 13.312t-88.064 37.376-74.752 57.856-57.856 74.752-37.376 88.064-13.312 98.304zM91.648 498.176q0-71.168 26.368-133.376t72.448-108.544 107.776-72.96 132.352-26.624q47.104 0 90.624 12.032t81.408 34.304 68.864 53.248 53.248 68.864 34.304 81.664 12.032 91.392q0 71.168-26.624 133.376t-72.96 108.8-108.288 73.472-132.608 26.88-132.352-26.88-107.776-73.472-72.448-108.8-26.368-133.376z" />
<glyph unicode="&#xaa;" glyph-name="uniAA" horiz-adv-x="376" d="M281.6 565.248q-5.632 0-8.192 2.048t-5.12 7.68l-5.12 34.816q-12.8-11.776-25.344-20.992t-26.112-15.36-29.184-9.472-34.048-3.328q-16.896 0-32.256 4.608t-27.136 14.080-18.944 24.064-7.168 34.56q0 18.432 10.752 35.072t34.56 29.184 61.696 20.48 91.648 8.96v26.112h36.352v-192.512h-16.384zM158.208 587.776q16.896 0 31.232 3.584t26.88 9.984 23.552 15.104 21.76 18.944v70.656q-86.016-2.56-124.672-19.968t-38.656-46.080q0-13.824 4.864-23.808t13.312-16.384 19.2-9.216 22.528-2.816zM261.632 757.76q0 38.912-17.408 59.136t-54.784 20.224q-22.016 0-37.12-5.632t-25.344-12.032-17.152-12.032-12.544-5.632q-4.096 0-6.656 2.048t-4.608 4.608l-6.144 11.776q24.576 24.576 51.712 36.096t61.44 11.52q51.712 0 78.336-29.952t26.624-80.128h-36.352z" />
<glyph unicode="&#xab;" glyph-name="uniAB" horiz-adv-x="407" d="M57.344 398.336v6.656l123.392 193.536 15.36-7.68q14.848-7.68 5.12-24.576l-93.696-150.016q-6.656-10.24-11.264-14.848 2.56-2.048 5.12-5.632t6.144-8.704l93.696-150.528q9.728-16.896-5.12-24.576l-15.36-7.68zM187.904 398.336v6.656l123.392 193.536 15.36-7.68q14.848-7.68 5.12-24.576l-93.696-150.016q-6.656-10.24-11.264-14.848 2.56-2.048 5.12-5.632t6.144-8.704l93.696-150.528q9.728-16.896-5.12-24.576l-15.36-7.68z" />
<glyph unicode="&#xac;" glyph-name="uniAC" horiz-adv-x="594" d="M85.504 497.664h424.448v-188.416h-41.984v151.040h-382.464v37.376z" />
<glyph unicode="&#xad;" glyph-name="uniAD" horiz-adv-x="379" d="M70.656 460.288h238.080v-41.472h-238.080v41.472z" />
<glyph unicode="&#xae;" glyph-name="uniAE" horiz-adv-x="861" d="M60.928 498.176q0 50.688 13.312 98.048t37.376 88.32 57.856 74.752 74.752 57.856 88.064 37.376 98.304 13.312q50.688 0 98.048-13.312t88.32-37.376 74.752-57.856 57.856-74.752 37.376-88.32 13.312-98.048q0-51.2-13.312-98.304t-37.376-88.064-57.856-74.752-74.752-57.856-88.32-37.376-98.048-13.312q-51.2 0-98.304 13.312t-88.064 37.376-74.752 57.856-57.856 74.752-37.376 88.064-13.312 98.304zM91.648 498.176q0-71.168 26.368-133.376t72.448-108.544 107.776-72.96 132.352-26.624q47.104 0 90.624 12.032t81.408 34.304 68.864 53.248 53.248 68.864 34.304 81.664 12.032 91.392q0 71.168-26.624 133.376t-72.96 108.8-108.288 73.472-132.608 26.88-132.352-26.88-107.776-73.472-72.448-108.8-26.368-133.376zM336.896 472.064v-200.192h-43.52v453.12h126.464q78.848 0 118.784-29.44t39.936-89.856q0-51.2-32.768-83.968t-93.184-40.96q6.144-3.584 11.008-8.448t9.472-12.032l145.92-188.416h-40.448q-5.632 0-9.216 1.536t-6.656 6.656l-138.752 179.712q-4.096 5.632-10.24 8.96t-20.48 3.328h-56.32zM336.896 504.832h75.776q61.952 0 92.416 24.832t30.464 71.424q0 47.104-27.392 68.608t-88.32 21.504h-82.944v-186.368z" />
<glyph unicode="&#xaf;" glyph-name="uniAF" d="M65.024 809.984h279.040v-33.28h-279.040v33.28z" />
<glyph unicode="&#xb0;" glyph-name="uniB0" horiz-adv-x="423" d="M57.344 716.288q0 31.744 12.032 59.648t32.768 48.64 48.896 32.512 60.416 11.776 60.672-11.776 49.152-32.512 32.768-48.64 12.032-59.648-12.032-59.392-32.768-48.384-49.152-32.768-60.672-12.032-60.416 12.032-48.896 32.768-32.768 48.384-12.032 59.392zM94.208 716.288q0-24.576 9.216-46.080t24.832-37.376 37.12-25.088 46.080-9.216 46.080 9.216 37.376 25.088 25.088 37.376 9.216 46.080-9.216 46.080-25.088 37.632-37.376 25.344-46.080 9.216-46.080-9.216-37.12-25.344-24.832-37.632-9.216-46.080z" />
<glyph unicode="&#xb1;" glyph-name="uniB1" horiz-adv-x="594" d="M316.416 726.016v-207.872h220.672v-37.376h-220.672v-205.824h-39.936v205.824h-220.16v37.376h220.16v207.872h39.936zM56.32 214.016h480.768v-37.376h-480.768v37.376z" />
<glyph unicode="&#xb2;" glyph-name="uniB2" horiz-adv-x="342" d="M172.544 966.656q22.528 0 42.496-6.656t34.56-19.2 23.040-31.232 8.448-43.264q0-20.48-6.4-38.144t-17.152-33.792-25.088-31.232-29.696-30.464l-105.984-107.52q9.728 2.56 19.712 3.84t20.224 1.28h140.8q12.288 0 12.288-12.288v-21.504h-242.688v12.288q0 4.096 1.536 8.192t5.632 7.68l120.32 121.344q14.336 14.336 26.88 28.672t22.016 28.928 14.848 29.952 5.376 31.744q0 17.92-5.888 31.232t-15.872 22.016-23.296 13.056-27.648 4.352q-31.744 0-51.712-17.664t-27.136-46.848q-2.56-5.632-6.4-7.936t-12.032-1.28l-19.456 3.072q7.168 49.152 38.912 75.264t79.36 26.112z" />
<glyph unicode="&#xb3;" glyph-name="uniB3" horiz-adv-x="342" d="M173.568 966.656q22.016 0 41.472-6.4t33.792-18.432 22.528-29.184 8.192-39.168q0-33.792-18.432-56.064t-49.152-32q37.376-8.704 57.088-30.208t19.712-55.296q0-24.576-9.472-44.288t-26.112-33.792-38.4-21.76-46.336-7.68q-30.72 0-51.456 7.68t-34.816 20.736-22.784 30.208-14.336 35.584l15.36 6.656q6.144 2.56 12.544 1.536t8.96-7.68l5.376-14.336t13.056-21.504 25.088-19.712 41.472-8.448q20.992 0 36.608 6.912t26.112 17.664 15.872 24.064 5.376 26.112q0 16.896-5.12 30.208t-16.896 22.784-30.72 14.592-46.080 5.12v25.088q46.592 1.024 69.12 20.224t22.528 51.456q0 17.408-5.632 30.208t-15.616 21.248-23.040 12.544-27.392 4.096q-32.256 0-51.968-17.664t-26.88-45.824q-2.56-6.656-6.4-8.704t-11.008-1.024l-18.944 3.072q7.168 49.152 38.656 75.264t78.080 26.112z" />
<glyph unicode="&#xb4;" glyph-name="uniB4" d="M320 868.352l-111.104-129.536q-4.096-5.12-8.448-6.912t-10.496-1.792h-29.184l80.384 121.856q5.632 9.216 11.776 12.8t18.432 3.584h48.64z" />
<glyph unicode="&#xb5;" glyph-name="uniB5" horiz-adv-x="651" d="M151.040 645.12v-317.952q0-35.84 8.192-64.512t24.576-48.64 41.216-30.464 58.624-10.496q53.76 0 96.768 28.416t73.728 79.616v364.032h48.64v-387.584q0-23.040 6.656-39.936t18.432-27.904 28.672-16.128 36.864-5.12h21.504v-19.968q0-6.656-10.496-12.032t-30.464-5.376q-21.504 0-40.96 6.144t-34.816 19.2-25.6 33.024-13.312 48.128q-33.792-49.664-78.848-77.312t-99.328-27.648q-51.2 0-84.48 19.456t-51.712 56.32q2.048-22.016 2.816-44.288t0.768-40.704v-167.936h-24.576q-10.24 0-16.128 5.632t-5.888 15.872v668.16h49.152z" />
<glyph unicode="&#xb6;" glyph-name="uniB6" horiz-adv-x="672" d="M636.416 860.16v-41.984h-115.2v-779.776h-44.032v779.776h-167.936v-779.776h-43.52v455.168q-52.736 0-94.72 14.336t-71.424 39.424-45.056 59.136-15.616 73.472q0 40.96 15.616 74.24t45.056 56.832 71.424 36.352 94.72 12.8h370.688z" />
<glyph unicode="&#xb7;" glyph-name="uniB7" horiz-adv-x="248" d="M72.192 438.784q0 10.752 4.096 20.48t11.008 16.896 16.128 11.264 19.456 4.096q10.752 0 20.48-4.096t16.896-11.264 11.264-16.896 4.096-20.48q0-10.24-4.096-19.712t-11.264-16.384-16.896-11.008-20.48-4.096q-10.24 0-19.456 4.096t-16.128 11.008-11.008 16.384-4.096 19.712z" />
<glyph unicode="&#xb8;" glyph-name="uniB8" d="M145.408-5.632q2.56 0 6.912-2.816t11.264-5.888 17.152-5.888 25.088-2.816q26.624 0 40.96 11.264t14.336 30.208q0 12.8-6.656 21.504t-18.688 14.080-28.672 8.704-36.608 5.888l23.552 73.216h28.672l-16.384-53.76q46.592-8.192 70.4-23.808t23.808-45.824q0-15.36-6.912-27.648t-19.456-20.736-29.952-12.8-37.888-4.352q-20.992 0-40.96 5.888t-33.28 15.616l5.12 14.336q3.072 5.632 8.192 5.632z" />
<glyph unicode="&#xb9;" glyph-name="uniB9" horiz-adv-x="342" d="M88.064 621.568h80.896v276.48l2.048 18.944-73.728-64.512q-5.12-4.096-9.984-2.816t-7.424 4.352l-11.264 15.872 108.032 94.208h29.696v-342.528h75.264v-25.088h-193.536v25.088z" />
<glyph unicode="&#xba;" glyph-name="uniBA" horiz-adv-x="414" d="M207.36 867.328q34.304 0 61.184-10.752t45.824-30.976 28.928-48.64 9.984-63.744-9.984-63.744-28.928-48.64-45.824-30.976-61.184-10.752-61.696 10.752-46.336 30.976-28.928 48.64-9.984 63.744 9.984 63.744 28.928 48.64 46.336 30.976 61.696 10.752zM207.36 588.8q53.76 0 80.64 33.024t26.88 91.392q0 57.856-26.88 91.136t-80.64 33.28q-54.272 0-81.408-33.28t-27.136-91.136q0-58.368 27.136-91.392t81.408-33.024z" />
<glyph unicode="&#xbb;" glyph-name="uniBB" horiz-adv-x="407" d="M95.744 204.288l-15.36 7.68q-14.848 7.68-5.12 24.576l93.696 150.528q3.072 5.632 5.888 8.96t5.376 5.376q-2.56 2.56-5.376 5.888t-5.888 8.96l-93.696 150.016q-9.728 16.896 5.12 24.576l15.36 7.68 123.392-193.536v-6.656zM226.304 204.288l-15.36 7.68q-14.848 7.68-5.12 24.576l93.696 150.528q3.072 5.632 5.888 8.96t5.376 5.376q-2.56 2.56-5.376 5.888t-5.888 8.96l-93.696 150.016q-9.728 16.896 5.12 24.576l15.36 7.68 123.392-193.536v-6.656z" />
<glyph unicode="&#xbc;" glyph-name="uniBC" horiz-adv-x="740" d="M193.024 151.552q-5.632-9.216-12.544-12.544t-15.616-3.328h-20.48l409.6 706.56q5.12 8.704 11.52 13.312t16.64 4.608h21.504zM72.192 519.68h80.896v276.48l2.048 18.944-73.728-64.512q-5.12-4.096-9.984-2.816t-7.424 4.352l-11.264 15.872 108.032 94.208h29.696v-342.528h75.264v-25.088h-193.536v25.088zM632.832 262.144h65.024v-18.432q0-8.192-9.216-8.192h-55.808v-99.84h-31.232v99.84h-166.912q-11.264 0-13.312 8.192l-3.072 16.384 180.224 241.664h34.304v-239.616zM601.6 433.664q0 6.144 0.512 13.312t1.536 14.848l-148.992-199.68h146.944v171.52z" />
<glyph unicode="&#xbd;" glyph-name="uniBD" horiz-adv-x="731" d="M171.008 151.552q-5.632-9.216-12.544-12.544t-15.616-3.328h-20.48l409.6 706.56q5.12 8.704 11.52 13.312t16.64 4.608h21.504zM73.728 519.68h80.896v276.48l2.048 18.944-73.728-64.512q-5.12-4.096-9.984-2.816t-7.424 4.352l-11.264 15.872 108.032 94.208h29.696v-342.528h75.264v-25.088h-193.536v25.088zM562.176 505.856q22.528 0 42.496-6.656t34.56-19.2 23.040-31.232 8.448-43.264q0-20.48-6.4-38.144t-17.152-33.792-25.088-31.232-29.696-30.464l-105.984-107.52q9.728 2.56 19.712 3.84t20.224 1.28h140.8q12.288 0 12.288-12.288v-21.504h-242.688v12.288q0 4.096 1.536 8.192t5.632 7.68l120.32 121.344q14.336 14.336 26.88 28.672t22.016 28.928 14.848 29.952 5.376 31.744q0 17.92-5.888 31.232t-15.872 22.016-23.296 13.056-27.648 4.352q-31.744 0-51.712-17.664t-27.136-46.848q-2.56-5.632-6.4-7.936t-12.032-1.28l-19.456 3.072q7.168 49.152 38.912 75.264t79.36 26.112z" />
<glyph unicode="&#xbe;" glyph-name="uniBE" horiz-adv-x="750" d="M206.848 151.552q-5.632-9.216-12.544-12.544t-15.616-3.328h-20.48l409.6 706.56q5.12 8.704 11.52 13.312t16.64 4.608h21.504zM180.224 864.768q22.016 0 41.472-6.4t33.792-18.432 22.528-29.184 8.192-39.168q0-33.792-18.432-56.064t-49.152-32q37.376-8.704 57.088-30.208t19.712-55.296q0-24.576-9.472-44.288t-26.112-33.792-38.4-21.76-46.336-7.68q-30.72 0-51.456 7.68t-34.816 20.736-22.784 30.208-14.336 35.584l15.36 6.656q6.144 2.56 12.544 1.536t8.96-7.68l5.376-14.336t13.056-21.504 25.088-19.712 41.472-8.448q20.992 0 36.608 6.912t26.112 17.664 15.872 24.064 5.376 26.112q0 16.896-5.12 30.208t-16.896 22.784-30.72 14.592-46.080 5.12v25.088q46.592 1.024 69.12 20.224t22.528 51.456q0 17.408-5.632 30.208t-15.616 21.248-23.040 12.544-27.392 4.096q-32.256 0-51.968-17.664t-26.88-45.824q-2.56-6.656-6.4-8.704t-11.008-1.024l-18.944 3.072q7.168 49.152 38.656 75.264t78.080 26.112zM642.56 262.144h65.024v-18.432q0-8.192-9.216-8.192h-55.808v-99.84h-31.232v99.84h-166.912q-11.264 0-13.312 8.192l-3.072 16.384 180.224 241.664h34.304v-239.616zM611.328 433.664q0 6.144 0.512 13.312t1.536 14.848l-148.992-199.68h146.944v171.52z" />
<glyph unicode="&#xbf;" glyph-name="uniBF" horiz-adv-x="432" d="M389.632 20.992q-13.824-13.824-31.232-26.624t-38.144-22.784-45.312-15.872-53.248-5.888q-35.328 0-67.328 10.496t-55.808 30.208-37.888 48.128-14.080 64.768q0 38.912 12.288 66.304t30.464 47.104 39.68 34.304 40.448 27.392 31.744 26.112 14.336 31.232l5.632 83.456h33.28l3.072-87.040q1.024-22.016-11.008-37.632t-30.208-29.184-39.936-27.136-40.192-31.232-30.976-41.728-12.544-58.368q0-27.648 10.752-49.408t29.184-36.864 42.496-23.040 50.176-7.936q33.792 0 58.368 8.96t41.472 19.968 26.624 19.968 13.824 8.96q7.168 0 11.264-6.656zM191.488 605.696q0 9.728 3.584 18.432t9.984 15.104 14.848 10.24 18.688 3.84q9.728 0 18.432-3.84t15.104-10.24 10.24-15.104 3.84-18.432q0-10.24-3.84-18.688t-10.24-14.848-15.104-9.984-18.432-3.584q-19.968 0-33.536 13.568t-13.568 33.536z" />
<glyph unicode="&#xc0;" glyph-name="uniC0" horiz-adv-x="671" d="M657.92 135.68h-40.448q-7.168 0-11.776 3.84t-7.168 9.984l-84.992 210.432h-355.84l-84.992-210.432q-2.048-5.632-7.168-9.728t-12.288-4.096h-39.936l296.448 724.48h51.712zM173.056 398.848h324.608l-147.456 366.080q-7.68 17.92-14.848 43.008-3.584-12.288-7.168-23.552t-7.168-19.968zM236.544 1078.272q12.288 0 18.688-1.792t12.544-9.472l122.368-141.824h-33.28q-6.656 0-11.008 1.024t-8.96 5.12l-155.648 146.944h55.296z" />
<glyph unicode="&#xc1;" glyph-name="uniC1" horiz-adv-x="671" d="M657.92 135.68h-40.448q-7.168 0-11.776 3.84t-7.168 9.984l-84.992 210.432h-355.84l-84.992-210.432q-2.048-5.632-7.168-9.728t-12.288-4.096h-39.936l296.448 724.48h51.712zM173.056 398.848h324.608l-147.456 366.080q-7.68 17.92-14.848 43.008-3.584-12.288-7.168-23.552t-7.168-19.968zM502.784 1078.272l-167.936-146.944q-4.608-4.096-9.216-5.12t-10.752-1.024h-33.28l132.096 141.824q6.144 7.168 12.544 9.216t18.688 2.048h57.856z" />
<glyph unicode="&#xc2;" glyph-name="uniC2" horiz-adv-x="671" d="M657.92 135.68h-40.448q-7.168 0-11.776 3.84t-7.168 9.984l-84.992 210.432h-355.84l-84.992-210.432q-2.048-5.632-7.168-9.728t-12.288-4.096h-39.936l296.448 724.48h51.712zM173.056 398.848h324.608l-147.456 366.080q-7.68 17.92-14.848 43.008-3.584-12.288-7.168-23.552t-7.168-19.968zM477.184 925.184h-36.352q-4.096 0-9.216 1.536t-10.752 7.168l-81.92 95.232-4.096 5.12q-1.024-1.024-1.792-2.56t-1.792-2.56l-81.408-95.232q-5.632-5.632-11.008-7.168t-9.472-1.536h-34.816l120.32 136.704h41.984z" />
<glyph unicode="&#xc3;" glyph-name="uniC3" horiz-adv-x="671" d="M657.92 135.68h-40.448q-7.168 0-11.776 3.84t-7.168 9.984l-84.992 210.432h-355.84l-84.992-210.432q-2.048-5.632-7.168-9.728t-12.288-4.096h-39.936l296.448 724.48h51.712zM173.056 398.848h324.608l-147.456 366.080q-7.68 17.92-14.848 43.008-3.584-12.288-7.168-23.552t-7.168-19.968zM400.384 963.072q12.288 0 22.016 4.608t16.384 12.288 10.24 17.664 3.584 20.736h30.208q0-17.92-5.12-34.048t-15.104-28.416-24.32-19.456-33.28-7.168q-19.456 0-36.352 8.96t-32.512 19.456-30.464 19.456-29.184 8.96q-11.776 0-21.248-4.608t-16.384-12.288-10.496-17.664-4.096-20.736h-31.232q0 17.408 5.376 33.536t15.616 28.416 24.832 19.712 33.024 7.424q19.968 0 36.864-8.96t32.512-19.456 29.952-19.456 29.184-8.96z" />
<glyph unicode="&#xc4;" glyph-name="uniC4" horiz-adv-x="671" d="M657.92 135.68h-40.448q-7.168 0-11.776 3.84t-7.168 9.984l-84.992 210.432h-355.84l-84.992-210.432q-2.048-5.632-7.168-9.728t-12.288-4.096h-39.936l296.448 724.48h51.712zM173.056 398.848h324.608l-147.456 366.080q-7.68 17.92-14.848 43.008-3.584-12.288-7.168-23.552t-7.168-19.968zM276.48 988.16q0-8.192-3.584-15.616t-9.216-12.8-13.312-8.704-15.872-3.328-15.616 3.328-13.056 8.704-8.96 12.8-3.328 15.616 3.328 15.872 8.96 13.568 13.056 9.216 15.616 3.328 15.872-3.328 13.312-9.216 9.216-13.568 3.584-15.872zM476.672 988.16q0-8.192-3.328-15.616t-9.216-12.8-13.312-8.704-15.616-3.328q-8.704 0-16.128 3.328t-13.056 8.704-8.96 12.8-3.328 15.616q0 16.896 12.288 29.44t29.184 12.544q8.192 0 15.616-3.328t13.312-9.216 9.216-13.568 3.328-15.872z" />
<glyph unicode="&#xc5;" glyph-name="uniC5" horiz-adv-x="671" d="M657.92 135.68h-40.448q-7.168 0-11.776 3.84t-7.168 9.984l-84.992 210.432h-355.84l-84.992-210.432q-2.048-5.632-7.168-9.728t-12.288-4.096h-39.936l296.448 724.48h51.712zM173.056 398.848h324.608l-147.456 366.080q-7.68 17.92-14.848 43.008-3.584-12.288-7.168-23.552t-7.168-19.968zM250.368 998.4q0 17.408 6.912 32.512t18.432 25.856 26.88 16.896 32.768 6.144 33.28-6.144 27.392-16.896 18.432-25.856 6.912-32.512q0-17.92-6.912-32.768t-18.432-25.6-27.392-16.896-33.28-6.144-32.768 6.144-26.88 16.896-18.432 25.6-6.912 32.768zM277.504 998.4q0-25.6 16.128-41.984t42.24-16.384q25.6 0 41.984 16.384t16.384 41.984-16.384 41.984-41.984 16.384q-26.112 0-42.24-16.384t-16.128-41.984z" />
<glyph unicode="&#xc6;" glyph-name="uniC6" horiz-adv-x="950" d="M405.504 860.16h491.52v-43.52h-417.28l36.864-292.864h316.416v-42.496h-310.784l38.4-302.080h336.896l-0.512-43.52h-379.904l-28.672 224.256h-305.152l-116.224-211.456q-6.656-12.8-21.504-12.8h-40.448zM204.8 398.848h278.528l-53.76 421.376q-4.096-13.312-9.216-25.088t-10.752-23.552z" />
<glyph unicode="&#xc7;" glyph-name="uniC7" horiz-adv-x="692" d="M342.016-5.632q2.56 0 6.912-2.816t11.264-5.888 17.152-5.888 25.088-2.816q26.624 0 40.96 11.264t14.336 30.208q0 12.8-6.656 21.504t-18.688 14.080-28.672 8.704-36.608 5.888l18.944 59.392q-72.704 2.56-132.608 29.952t-102.912 75.52-66.816 115.2-23.808 149.504 25.6 150.528 71.68 116.992 110.592 75.776 142.336 26.88q74.24 0 131.584-23.040t104.448-65.024l-15.872-23.040q-4.096-6.144-12.8-6.144-6.144 0-19.968 11.264t-38.4 24.832-61.184 24.832-87.808 11.264q-65.536 0-120.064-22.528t-93.696-64.512-61.184-102.4-22.016-135.68q0-76.8 22.272-137.216t61.184-102.144 91.904-64 114.432-22.272q38.912 0 69.376 5.12t56.064 15.36 47.616 25.088 43.52 34.816q2.56 2.048 5.12 3.328t5.12 1.28q5.12 0 8.704-3.584l20.48-22.016q-21.504-23.040-46.592-41.728t-55.040-32-65.28-21.248-77.312-8.96l-11.776-39.936q46.592-8.192 70.4-23.808t23.808-45.824q0-15.36-6.912-27.648t-19.456-20.736-29.952-12.8-37.888-4.352q-20.992 0-40.96 5.888t-33.28 15.616l5.12 14.336q3.072 5.632 8.192 5.632z" />
<glyph unicode="&#xc8;" glyph-name="uniC8" horiz-adv-x="594" d="M541.184 860.16v-43.52h-381.44v-292.864h317.44v-42.496h-317.44v-302.080h382.464l-1.024-43.52h-434.176v724.48h434.176zM230.4 1078.272q12.288 0 18.688-1.792t12.544-9.472l122.368-141.824h-33.28q-6.656 0-11.008 1.024t-8.96 5.12l-155.648 146.944h55.296z" />
<glyph unicode="&#xc9;" glyph-name="uniC9" horiz-adv-x="594" d="M541.184 860.16v-43.52h-381.44v-292.864h317.44v-42.496h-317.44v-302.080h382.464l-1.024-43.52h-434.176v724.48h434.176zM496.64 1078.272l-167.936-146.944q-4.608-4.096-9.216-5.12t-10.752-1.024h-33.28l132.096 141.824q6.144 7.168 12.544 9.216t18.688 2.048h57.856z" />
<glyph unicode="&#xca;" glyph-name="uniCA" horiz-adv-x="594" d="M541.184 860.16v-43.52h-381.44v-292.864h317.44v-42.496h-317.44v-302.080h382.464l-1.024-43.52h-434.176v724.48h434.176zM471.040 925.184h-36.352q-4.096 0-9.216 1.536t-10.752 7.168l-81.92 95.232-4.096 5.12q-1.024-1.024-1.792-2.56t-1.792-2.56l-81.408-95.232q-5.632-5.632-11.008-7.168t-9.472-1.536h-34.816l120.32 136.704h41.984z" />
<glyph unicode="&#xcb;" glyph-name="uniCB" horiz-adv-x="594" d="M541.184 860.16v-43.52h-381.44v-292.864h317.44v-42.496h-317.44v-302.080h382.464l-1.024-43.52h-434.176v724.48h434.176zM270.336 988.16q0-8.192-3.584-15.616t-9.216-12.8-13.312-8.704-15.872-3.328-15.616 3.328-13.056 8.704-8.96 12.8-3.328 15.616 3.328 15.872 8.96 13.568 13.056 9.216 15.616 3.328 15.872-3.328 13.312-9.216 9.216-13.568 3.584-15.872zM470.528 988.16q0-8.192-3.328-15.616t-9.216-12.8-13.312-8.704-15.616-3.328q-8.704 0-16.128 3.328t-13.056 8.704-8.96 12.8-3.328 15.616q0 16.896 12.288 29.44t29.184 12.544q8.192 0 15.616-3.328t13.312-9.216 9.216-13.568 3.328-15.872z" />
<glyph unicode="&#xcc;" glyph-name="uniCC" horiz-adv-x="267" d="M159.744 135.68h-52.736v724.48h52.736v-724.48zM35.84 1078.272q12.288 0 18.688-1.792t12.544-9.472l122.368-141.824h-33.28q-6.656 0-11.008 1.024t-8.96 5.12l-155.648 146.944h55.296z" />
<glyph unicode="&#xcd;" glyph-name="uniCD" horiz-adv-x="267" d="M159.744 135.68h-52.736v724.48h52.736v-724.48zM302.080 1078.272l-167.936-146.944q-4.608-4.096-9.216-5.12t-10.752-1.024h-33.28l132.096 141.824q6.144 7.168 12.544 9.216t18.688 2.048h57.856z" />
<glyph unicode="&#xce;" glyph-name="uniCE" horiz-adv-x="267" d="M159.744 135.68h-52.736v724.48h52.736v-724.48zM276.48 925.184h-36.352q-4.096 0-9.216 1.536t-10.752 7.168l-81.92 95.232-4.096 5.12q-1.024-1.024-1.792-2.56t-1.792-2.56l-81.408-95.232q-5.632-5.632-11.008-7.168t-9.472-1.536h-34.816l120.32 136.704h41.984z" />
<glyph unicode="&#xcf;" glyph-name="uniCF" horiz-adv-x="267" d="M159.744 135.68h-52.736v724.48h52.736v-724.48zM75.776 988.16q0-8.192-3.584-15.616t-9.216-12.8-13.312-8.704-15.872-3.328-15.616 3.328-13.056 8.704-8.96 12.8-3.328 15.616 3.328 15.872 8.96 13.568 13.056 9.216 15.616 3.328 15.872-3.328 13.312-9.216 9.216-13.568 3.584-15.872zM275.968 988.16q0-8.192-3.328-15.616t-9.216-12.8-13.312-8.704-15.616-3.328q-8.704 0-16.128 3.328t-13.056 8.704-8.96 12.8-3.328 15.616q0 16.896 12.288 29.44t29.184 12.544q8.192 0 15.616-3.328t13.312-9.216 9.216-13.568 3.328-15.872z" />
<glyph unicode="&#xd0;" glyph-name="uniD0" horiz-adv-x="785" d="M3.584 519.168h110.592v340.992h264.192q77.312 0 140.8-25.088t109.056-72.192 70.656-114.176 25.088-150.528q0-83.968-25.088-151.040t-70.656-114.176-109.056-72.192-140.8-25.088h-264.192v350.72h-110.592v32.768zM669.696 498.176q0 75.776-20.992 135.168t-59.136 100.352-91.904 62.464-119.296 21.504h-211.456v-298.496h163.328v-32.768h-163.328v-308.224h211.456q65.536 0 119.296 21.504t91.904 62.464 59.136 100.352 20.992 135.68z" />
<glyph unicode="&#xd1;" glyph-name="uniD1" horiz-adv-x="773" d="M133.12 860.16q7.168 0 11.008-1.792t8.448-7.936l469.504-627.712q-1.536 15.36-1.536 29.696v607.744h45.568v-724.48h-24.576q-6.656 0-11.008 2.304t-8.448 7.936l-470.528 628.224q1.536-15.36 1.536-28.672v-609.792h-46.080v724.48h26.112zM462.848 962.56q12.288 0 22.016 4.608t16.384 12.288 10.24 17.664 3.584 20.736h30.208q0-17.92-5.12-34.048t-15.104-28.416-24.32-19.456-33.28-7.168q-19.456 0-36.352 8.96t-32.512 19.456-30.464 19.456-29.184 8.96q-11.776 0-21.248-4.608t-16.384-12.288-10.496-17.664-4.096-20.736h-31.232q0 17.408 5.376 33.536t15.616 28.416 24.832 19.712 33.024 7.424q19.968 0 36.864-8.96t32.512-19.456 29.952-19.456 29.184-8.96z" />
<glyph unicode="&#xd2;" glyph-name="uniD2" horiz-adv-x="810" d="M750.592 498.176q0-83.968-25.088-152.32t-70.656-116.736-109.312-74.752-140.544-26.368-140.288 26.368-109.056 74.752-70.656 116.736-25.088 152.32q0 83.456 25.088 151.808t70.656 116.736 109.056 75.008 140.288 26.624 140.544-26.368 109.312-75.008 70.656-116.992 25.088-151.808zM696.32 498.176q0 75.776-20.992 136.192t-59.392 102.4-92.16 64.256-118.784 22.272q-64.512 0-118.272-22.272t-92.416-64.256-59.904-102.4-21.248-136.192q0-76.288 21.248-136.448t59.904-102.144 92.416-64 118.272-22.016q65.024 0 118.784 22.016t92.16 64 59.392 102.144 20.992 136.448zM307.2 1078.272q12.288 0 18.688-1.792t12.544-9.472l122.368-141.824h-33.28q-6.656 0-11.008 1.024t-8.96 5.12l-155.648 146.944h55.296z" />
<glyph unicode="&#xd3;" glyph-name="uniD3" horiz-adv-x="810" d="M750.592 498.176q0-83.968-25.088-152.32t-70.656-116.736-109.312-74.752-140.544-26.368-140.288 26.368-109.056 74.752-70.656 116.736-25.088 152.32q0 83.456 25.088 151.808t70.656 116.736 109.056 75.008 140.288 26.624 140.544-26.368 109.312-75.008 70.656-116.992 25.088-151.808zM696.32 498.176q0 75.776-20.992 136.192t-59.392 102.4-92.16 64.256-118.784 22.272q-64.512 0-118.272-22.272t-92.416-64.256-59.904-102.4-21.248-136.192q0-76.288 21.248-136.448t59.904-102.144 92.416-64 118.272-22.016q65.024 0 118.784 22.016t92.16 64 59.392 102.144 20.992 136.448zM573.44 1078.272l-167.936-146.944q-4.608-4.096-9.216-5.12t-10.752-1.024h-33.28l132.096 141.824q6.144 7.168 12.544 9.216t18.688 2.048h57.856z" />
<glyph unicode="&#xd4;" glyph-name="uniD4" horiz-adv-x="810" d="M750.592 498.176q0-83.968-25.088-152.32t-70.656-116.736-109.312-74.752-140.544-26.368-140.288 26.368-109.056 74.752-70.656 116.736-25.088 152.32q0 83.456 25.088 151.808t70.656 116.736 109.056 75.008 140.288 26.624 140.544-26.368 109.312-75.008 70.656-116.992 25.088-151.808zM696.32 498.176q0 75.776-20.992 136.192t-59.392 102.4-92.16 64.256-118.784 22.272q-64.512 0-118.272-22.272t-92.416-64.256-59.904-102.4-21.248-136.192q0-76.288 21.248-136.448t59.904-102.144 92.416-64 118.272-22.016q65.024 0 118.784 22.016t92.16 64 59.392 102.144 20.992 136.448zM547.84 925.184h-36.352q-4.096 0-9.216 1.536t-10.752 7.168l-81.92 95.232-4.096 5.12q-1.024-1.024-1.792-2.56t-1.792-2.56l-81.408-95.232q-5.632-5.632-11.008-7.168t-9.472-1.536h-34.816l120.32 136.704h41.984z" />
<glyph unicode="&#xd5;" glyph-name="uniD5" horiz-adv-x="810" d="M750.592 498.176q0-83.968-25.088-152.32t-70.656-116.736-109.312-74.752-140.544-26.368-140.288 26.368-109.056 74.752-70.656 116.736-25.088 152.32q0 83.456 25.088 151.808t70.656 116.736 109.056 75.008 140.288 26.624 140.544-26.368 109.312-75.008 70.656-116.992 25.088-151.808zM696.32 498.176q0 75.776-20.992 136.192t-59.392 102.4-92.16 64.256-118.784 22.272q-64.512 0-118.272-22.272t-92.416-64.256-59.904-102.4-21.248-136.192q0-76.288 21.248-136.448t59.904-102.144 92.416-64 118.272-22.016q65.024 0 118.784 22.016t92.16 64 59.392 102.144 20.992 136.448zM471.040 963.072q12.288 0 22.016 4.608t16.384 12.288 10.24 17.664 3.584 20.736h30.208q0-17.92-5.12-34.048t-15.104-28.416-24.32-19.456-33.28-7.168q-19.456 0-36.352 8.96t-32.512 19.456-30.464 19.456-29.184 8.96q-11.776 0-21.248-4.608t-16.384-12.288-10.496-17.664-4.096-20.736h-31.232q0 17.408 5.376 33.536t15.616 28.416 24.832 19.712 33.024 7.424q19.968 0 36.864-8.96t32.512-19.456 29.952-19.456 29.184-8.96z" />
<glyph unicode="&#xd6;" glyph-name="uniD6" horiz-adv-x="810" d="M750.592 498.176q0-83.968-25.088-152.32t-70.656-116.736-109.312-74.752-140.544-26.368-140.288 26.368-109.056 74.752-70.656 116.736-25.088 152.32q0 83.456 25.088 151.808t70.656 116.736 109.056 75.008 140.288 26.624 140.544-26.368 109.312-75.008 70.656-116.992 25.088-151.808zM696.32 498.176q0 75.776-20.992 136.192t-59.392 102.4-92.16 64.256-118.784 22.272q-64.512 0-118.272-22.272t-92.416-64.256-59.904-102.4-21.248-136.192q0-76.288 21.248-136.448t59.904-102.144 92.416-64 118.272-22.016q65.024 0 118.784 22.016t92.16 64 59.392 102.144 20.992 136.448zM347.136 988.16q0-8.192-3.584-15.616t-9.216-12.8-13.312-8.704-15.872-3.328-15.616 3.328-13.056 8.704-8.96 12.8-3.328 15.616 3.328 15.872 8.96 13.568 13.056 9.216 15.616 3.328 15.872-3.328 13.312-9.216 9.216-13.568 3.584-15.872zM547.328 988.16q0-8.192-3.328-15.616t-9.216-12.8-13.312-8.704-15.616-3.328q-8.704 0-16.128 3.328t-13.056 8.704-8.96 12.8-3.328 15.616q0 16.896 12.288 29.44t29.184 12.544q8.192 0 15.616-3.328t13.312-9.216 9.216-13.568 3.328-15.872z" />
<glyph unicode="&#xd7;" glyph-name="uniD7" horiz-adv-x="594" d="M512 666.112l-187.904-187.392 190.464-190.464-26.112-26.624-190.976 190.464-191.488-191.488-26.624 26.624 190.976 191.488-188.416 188.416 27.136 27.648 188.416-188.928 187.392 187.904z" />
<glyph unicode="&#xd8;" glyph-name="uniD8" horiz-adv-x="810" d="M750.592 498.176q0-83.968-25.088-152.32t-70.656-116.736-109.312-74.752-140.544-26.368q-58.88 0-109.824 15.616t-92.416 44.8l-67.072-90.112q-6.656-8.704-15.104-12.544t-17.152-3.84h-22.016l94.72 127.488q-55.296 48.64-85.76 121.856t-30.464 166.912q0 83.456 25.088 151.808t70.656 116.736 109.056 75.008 140.288 26.624q61.952 0 115.2-17.152t95.744-49.408l56.832 76.288q5.632 8.192 10.496 11.776t14.592 3.584h28.16l-84.48-113.664q51.712-49.152 80.384-120.32t28.672-161.28zM113.152 498.176q0-81.92 24.064-144.896t68.096-104.96l381.952 514.56q-36.352 29.184-82.176 44.8t-100.096 15.616q-64.512 0-118.272-22.272t-92.416-64.256-59.904-102.4-21.248-136.192zM696.32 498.176q0 77.824-22.016 138.752t-61.952 103.424l-381.44-513.536q35.328-26.112 79.104-39.68t94.976-13.568q65.024 0 118.784 22.016t92.16 64 59.392 102.144 20.992 136.448z" />
<glyph unicode="&#xd9;" glyph-name="uniD9" horiz-adv-x="744" d="M372.224 173.056q52.224 0 93.44 18.176t69.888 50.432 43.776 76.032 15.104 94.464v448h52.224v-448q0-59.904-18.944-111.872t-54.528-90.624-86.528-60.672-114.432-22.016-114.432 22.016-86.528 60.672-54.528 90.624-18.944 111.872v448h52.736v-447.488q0-50.688 15.104-94.464t43.52-76.032 69.632-50.688 93.44-18.432zM273.408 1078.272q12.288 0 18.688-1.792t12.544-9.472l122.368-141.824h-33.28q-6.656 0-11.008 1.024t-8.96 5.12l-155.648 146.944h55.296z" />
<glyph unicode="&#xda;" glyph-name="uniDA" horiz-adv-x="744" d="M372.224 173.056q52.224 0 93.44 18.176t69.888 50.432 43.776 76.032 15.104 94.464v448h52.224v-448q0-59.904-18.944-111.872t-54.528-90.624-86.528-60.672-114.432-22.016-114.432 22.016-86.528 60.672-54.528 90.624-18.944 111.872v448h52.736v-447.488q0-50.688 15.104-94.464t43.52-76.032 69.632-50.688 93.44-18.432zM539.648 1078.272l-167.936-146.944q-4.608-4.096-9.216-5.12t-10.752-1.024h-33.28l132.096 141.824q6.144 7.168 12.544 9.216t18.688 2.048h57.856z" />
<glyph unicode="&#xdb;" glyph-name="uniDB" horiz-adv-x="744" d="M372.224 173.056q52.224 0 93.44 18.176t69.888 50.432 43.776 76.032 15.104 94.464v448h52.224v-448q0-59.904-18.944-111.872t-54.528-90.624-86.528-60.672-114.432-22.016-114.432 22.016-86.528 60.672-54.528 90.624-18.944 111.872v448h52.736v-447.488q0-50.688 15.104-94.464t43.52-76.032 69.632-50.688 93.44-18.432zM514.048 925.184h-36.352q-4.096 0-9.216 1.536t-10.752 7.168l-81.92 95.232-4.096 5.12q-1.024-1.024-1.792-2.56t-1.792-2.56l-81.408-95.232q-5.632-5.632-11.008-7.168t-9.472-1.536h-34.816l120.32 136.704h41.984z" />
<glyph unicode="&#xdc;" glyph-name="uniDC" horiz-adv-x="744" d="M372.224 173.056q52.224 0 93.44 18.176t69.888 50.432 43.776 76.032 15.104 94.464v448h52.224v-448q0-59.904-18.944-111.872t-54.528-90.624-86.528-60.672-114.432-22.016-114.432 22.016-86.528 60.672-54.528 90.624-18.944 111.872v448h52.736v-447.488q0-50.688 15.104-94.464t43.52-76.032 69.632-50.688 93.44-18.432zM313.344 988.16q0-8.192-3.584-15.616t-9.216-12.8-13.312-8.704-15.872-3.328-15.616 3.328-13.056 8.704-8.96 12.8-3.328 15.616 3.328 15.872 8.96 13.568 13.056 9.216 15.616 3.328 15.872-3.328 13.312-9.216 9.216-13.568 3.584-15.872zM513.536 988.16q0-8.192-3.328-15.616t-9.216-12.8-13.312-8.704-15.616-3.328q-8.704 0-16.128 3.328t-13.056 8.704-8.96 12.8-3.328 15.616q0 16.896 12.288 29.44t29.184 12.544q8.192 0 15.616-3.328t13.312-9.216 9.216-13.568 3.328-15.872z" />
<glyph unicode="&#xdd;" glyph-name="uniDD" horiz-adv-x="609" d="M330.752 434.176v-298.496h-52.224v298.496l-268.288 425.984h46.080q7.168 0 11.776-3.328t7.68-9.472l207.36-332.8q6.656-11.776 12.032-22.784t9.472-21.76q4.096 10.752 9.472 21.76t12.032 22.784l207.36 332.8q2.56 5.632 7.424 9.216t12.032 3.584h46.080zM472.576 1078.272l-167.936-146.944q-4.608-4.096-9.216-5.12t-10.752-1.024h-33.28l132.096 141.824q6.144 7.168 12.544 9.216t18.688 2.048h57.856z" />
<glyph unicode="&#xde;" glyph-name="uniDE" horiz-adv-x="591" d="M159.744 282.112v-146.432h-52.736v724.48h52.736v-145.408h134.656q127.488 0 192.256-55.808t64.768-159.232q0-47.616-17.92-87.552t-51.2-68.864-80.896-45.056-107.008-16.128h-134.656zM159.744 324.096h134.656q47.616 0 85.504 13.312t64.256 36.864 40.448 55.552 14.080 69.888q0 83.456-51.2 128.256t-153.088 44.8h-134.656v-348.672z" />
<glyph unicode="&#xdf;" glyph-name="uniDF" horiz-adv-x="566" d="M310.272 869.376q43.52 0 77.312-13.056t56.832-33.792 34.816-46.336 11.776-51.2q0-31.744-12.032-55.296t-30.208-41.728-39.168-32.512-39.168-28.416-30.208-28.928-12.032-33.792q0-18.432 8.448-30.976t22.528-21.76 31.744-16.896 36.352-16.128 36.352-18.944 31.744-25.856 22.528-36.608 8.448-51.456q0-34.816-12.8-64t-35.84-50.176-55.296-32.512-71.68-11.52q-51.712 0-88.832 17.152t-67.84 44.8l11.264 17.408q2.56 4.096 5.888 6.144t8.96 2.048q6.656 0 16.128-8.192t24.832-17.664 38.144-17.664 55.040-8.192q30.208 0 53.76 8.96t39.68 24.576 24.576 36.608 8.448 45.056q0 34.304-15.104 55.040t-37.632 34.048-48.64 23.040-48.64 22.272-37.632 31.744-15.104 51.456q0 25.088 12.288 43.52t30.976 34.304 40.192 30.72 40.192 32.256 30.976 38.656 12.288 49.92q0 15.872-7.168 34.56t-23.296 34.816-42.24 26.88-63.488 10.752q-36.352 0-68.352-11.008t-56.064-33.536-37.888-57.6-13.824-83.2v-511.488h-48.64v512.512q0 51.712 16.896 92.928t46.848 69.632 71.68 43.52 90.88 15.104z" />
<glyph unicode="&#xe0;" glyph-name="uniE0" horiz-adv-x="496" d="M397.312 135.68q-15.36 0-18.944 14.336l-7.168 65.024q-20.992-20.48-41.728-36.864t-43.264-27.648-48.64-17.152-57.344-5.888q-26.112 0-50.688 7.68t-43.776 23.552-30.72 40.704-11.52 59.648q0 32.256 18.432 59.904t57.856 48.128 101.12 32.768 148.224 14.336v53.248q0 70.656-30.464 108.8t-90.368 38.144q-36.864 0-62.72-10.24t-43.776-22.528-29.184-22.528-18.944-10.24q-5.632 0-9.216 2.56t-6.144 6.656l-8.704 14.848q39.936 39.936 83.968 60.416t99.84 20.48q40.96 0 71.68-13.056t50.944-37.376 30.464-58.88 10.24-77.056v-331.776h-19.456zM192.512 162.816q29.696 0 54.528 6.4t46.080 17.92 39.68 27.392 36.352 34.304v132.608q-72.704-2.048-125.44-11.008t-86.784-24.32-50.176-36.608-16.128-48.384q0-25.6 8.448-44.288t22.528-30.72 32.512-17.664 38.4-5.632zM185.344 868.352q12.288 0 18.432-3.584t11.776-12.8l80.384-121.856h-28.16q-6.144 0-10.496 1.792t-8.448 6.912l-110.592 129.536h47.104z" />
<glyph unicode="&#xe1;" glyph-name="uniE1" horiz-adv-x="496" d="M397.312 135.68q-15.36 0-18.944 14.336l-7.168 65.024q-20.992-20.48-41.728-36.864t-43.264-27.648-48.64-17.152-57.344-5.888q-26.112 0-50.688 7.68t-43.776 23.552-30.72 40.704-11.52 59.648q0 32.256 18.432 59.904t57.856 48.128 101.12 32.768 148.224 14.336v53.248q0 70.656-30.464 108.8t-90.368 38.144q-36.864 0-62.72-10.24t-43.776-22.528-29.184-22.528-18.944-10.24q-5.632 0-9.216 2.56t-6.144 6.656l-8.704 14.848q39.936 39.936 83.968 60.416t99.84 20.48q40.96 0 71.68-13.056t50.944-37.376 30.464-58.88 10.24-77.056v-331.776h-19.456zM192.512 162.816q29.696 0 54.528 6.4t46.080 17.92 39.68 27.392 36.352 34.304v132.608q-72.704-2.048-125.44-11.008t-86.784-24.32-50.176-36.608-16.128-48.384q0-25.6 8.448-44.288t22.528-30.72 32.512-17.664 38.4-5.632zM358.912 868.352l-111.104-129.536q-4.096-5.12-8.448-6.912t-10.496-1.792h-29.184l80.384 121.856q5.632 9.216 11.776 12.8t18.432 3.584h48.64z" />
<glyph unicode="&#xe2;" glyph-name="uniE2" horiz-adv-x="496" d="M397.312 135.68q-15.36 0-18.944 14.336l-7.168 65.024q-20.992-20.48-41.728-36.864t-43.264-27.648-48.64-17.152-57.344-5.888q-26.112 0-50.688 7.68t-43.776 23.552-30.72 40.704-11.52 59.648q0 32.256 18.432 59.904t57.856 48.128 101.12 32.768 148.224 14.336v53.248q0 70.656-30.464 108.8t-90.368 38.144q-36.864 0-62.72-10.24t-43.776-22.528-29.184-22.528-18.944-10.24q-5.632 0-9.216 2.56t-6.144 6.656l-8.704 14.848q39.936 39.936 83.968 60.416t99.84 20.48q40.96 0 71.68-13.056t50.944-37.376 30.464-58.88 10.24-77.056v-331.776h-19.456zM192.512 162.816q29.696 0 54.528 6.4t46.080 17.92 39.68 27.392 36.352 34.304v132.608q-72.704-2.048-125.44-11.008t-86.784-24.32-50.176-36.608-16.128-48.384q0-25.6 8.448-44.288t22.528-30.72 32.512-17.664 38.4-5.632zM376.832 734.208h-33.28q-7.68 0-14.848 7.168l-78.848 84.992q-3.584 2.56-5.632 6.144l-5.632-6.144-78.848-84.992q-3.072-3.072-6.912-5.12t-7.936-2.048h-34.304l111.104 125.952h43.52z" />
<glyph unicode="&#xe3;" glyph-name="uniE3" horiz-adv-x="496" d="M397.312 135.68q-15.36 0-18.944 14.336l-7.168 65.024q-20.992-20.48-41.728-36.864t-43.264-27.648-48.64-17.152-57.344-5.888q-26.112 0-50.688 7.68t-43.776 23.552-30.72 40.704-11.52 59.648q0 32.256 18.432 59.904t57.856 48.128 101.12 32.768 148.224 14.336v53.248q0 70.656-30.464 108.8t-90.368 38.144q-36.864 0-62.72-10.24t-43.776-22.528-29.184-22.528-18.944-10.24q-5.632 0-9.216 2.56t-6.144 6.656l-8.704 14.848q39.936 39.936 83.968 60.416t99.84 20.48q40.96 0 71.68-13.056t50.944-37.376 30.464-58.88 10.24-77.056v-331.776h-19.456zM192.512 162.816q29.696 0 54.528 6.4t46.080 17.92 39.68 27.392 36.352 34.304v132.608q-72.704-2.048-125.44-11.008t-86.784-24.32-50.176-36.608-16.128-48.384q0-25.6 8.448-44.288t22.528-30.72 32.512-17.664 38.4-5.632zM302.080 791.040q22.528 0 33.536 14.080t12.032 38.144h30.208q0-18.432-4.864-34.56t-14.336-27.904-23.296-18.432-31.744-6.656q-16.896 0-31.744 8.448t-28.672 18.432-26.88 18.432-26.368 8.448q-21.504 0-33.024-14.592t-12.032-37.632h-31.232q0 18.432 5.12 34.56t14.848 27.904 23.552 18.432 31.232 6.656 32.256-8.448 28.416-18.432 26.624-18.432 26.368-8.448z" />
<glyph unicode="&#xe4;" glyph-name="uniE4" horiz-adv-x="496" d="M397.312 135.68q-15.36 0-18.944 14.336l-7.168 65.024q-20.992-20.48-41.728-36.864t-43.264-27.648-48.64-17.152-57.344-5.888q-26.112 0-50.688 7.68t-43.776 23.552-30.72 40.704-11.52 59.648q0 32.256 18.432 59.904t57.856 48.128 101.12 32.768 148.224 14.336v53.248q0 70.656-30.464 108.8t-90.368 38.144q-36.864 0-62.72-10.24t-43.776-22.528-29.184-22.528-18.944-10.24q-5.632 0-9.216 2.56t-6.144 6.656l-8.704 14.848q39.936 39.936 83.968 60.416t99.84 20.48q40.96 0 71.68-13.056t50.944-37.376 30.464-58.88 10.24-77.056v-331.776h-19.456zM192.512 162.816q29.696 0 54.528 6.4t46.080 17.92 39.68 27.392 36.352 34.304v132.608q-72.704-2.048-125.44-11.008t-86.784-24.32-50.176-36.608-16.128-48.384q0-25.6 8.448-44.288t22.528-30.72 32.512-17.664 38.4-5.632zM195.584 793.088q0-8.192-3.584-15.616t-9.472-13.056-13.568-8.96-15.872-3.328q-8.704 0-16.128 3.328t-13.312 8.96-9.216 13.056-3.328 15.616q0 8.704 3.328 16.384t9.216 13.568 13.312 9.216 16.128 3.328q8.192 0 15.872-3.328t13.568-9.216 9.472-13.568 3.584-16.384zM375.808 793.088q0-8.192-3.584-15.616t-9.216-13.056-13.312-8.96-15.872-3.328q-8.704 0-16.384 3.328t-13.312 8.96-8.96 13.056-3.328 15.616q0 17.408 12.288 29.952t29.696 12.544q8.192 0 15.872-3.328t13.312-9.216 9.216-13.568 3.584-16.384z" />
<glyph unicode="&#xe5;" glyph-name="uniE5" horiz-adv-x="496" d="M397.312 135.68q-15.36 0-18.944 14.336l-7.168 65.024q-20.992-20.48-41.728-36.864t-43.264-27.648-48.64-17.152-57.344-5.888q-26.112 0-50.688 7.68t-43.776 23.552-30.72 40.704-11.52 59.648q0 32.256 18.432 59.904t57.856 48.128 101.12 32.768 148.224 14.336v53.248q0 70.656-30.464 108.8t-90.368 38.144q-36.864 0-62.72-10.24t-43.776-22.528-29.184-22.528-18.944-10.24q-5.632 0-9.216 2.56t-6.144 6.656l-8.704 14.848q39.936 39.936 83.968 60.416t99.84 20.48q40.96 0 71.68-13.056t50.944-37.376 30.464-58.88 10.24-77.056v-331.776h-19.456zM192.512 162.816q29.696 0 54.528 6.4t46.080 17.92 39.68 27.392 36.352 34.304v132.608q-72.704-2.048-125.44-11.008t-86.784-24.32-50.176-36.608-16.128-48.384q0-25.6 8.448-44.288t22.528-30.72 32.512-17.664 38.4-5.632zM155.648 802.304q0 18.432 6.912 33.792t18.944 26.368 27.904 17.408 33.792 6.4q18.432 0 34.56-6.4t28.16-17.408 18.944-26.368 6.912-33.792-6.912-33.536-18.944-26.368-28.16-17.408-34.56-6.144q-17.92 0-33.792 6.144t-27.904 17.408-18.944 26.368-6.912 33.536zM185.344 802.304q0-25.6 16.128-41.984t42.24-16.384q25.6 0 41.984 16.384t16.384 41.984-16.384 41.984-41.984 16.384q-26.112 0-42.24-16.384t-16.128-41.984z" />
<glyph unicode="&#xe6;" glyph-name="uniE6" horiz-adv-x="819" d="M583.68 653.312q38.4 0 72.192-15.36t58.88-44.8 39.424-72.96 14.336-100.352q0-11.264-2.816-15.36t-9.984-4.096h-339.968q0-57.344 12.288-100.864t34.816-72.704 54.272-44.032 70.656-14.848q36.352 0 61.952 8.448t43.008 18.432 27.136 18.432 14.848 8.448q7.168 0 11.264-5.12l12.288-15.36q-11.776-15.36-30.72-28.672t-41.984-22.784-48.896-15.104-52.48-5.632q-67.072 0-115.456 35.328t-72.448 105.472q-10.24-39.424-32-66.56t-49.408-44.032-58.624-24.32-59.136-7.424q-32.256 0-59.904 7.936t-48.128 24.832-32.256 43.52-11.776 64q0 32.768 18.432 61.696t57.6 50.944 100.864 35.84 148.224 15.872v35.328q0 70.656-30.464 109.312t-90.368 38.656q-36.864 0-62.72-10.496t-43.776-22.784-29.184-22.784-18.944-10.496q-5.632 0-9.216 2.56t-6.144 6.656l-8.704 14.848q39.424 39.936 82.176 60.416t97.536 20.48q64.512 0 101.376-33.024t48.64-90.368q24.064 56.832 70.144 89.856t113.152 33.024zM370.176 399.36q-72.704-2.56-125.184-12.8t-86.528-27.136-50.176-39.68-16.128-49.92q0-28.672 8.448-48.896t23.808-33.024 36.352-18.944 46.080-6.144q33.792 0 63.488 11.264t51.968 33.024 35.072 53.504 12.8 72.192v66.56zM582.656 616.96q-36.864 0-66.304-13.312t-50.432-37.376-33.536-58.368-15.616-76.288h308.736q0 43.52-10.752 78.080t-29.696 58.368-45.056 36.352-57.344 12.544z" />
<glyph unicode="&#xe7;" glyph-name="uniE7" horiz-adv-x="483" d="M218.112-5.632q2.56 0 6.912-2.816t11.264-5.888 17.152-5.888 25.088-2.816q26.624 0 40.96 11.264t14.336 30.208q0 12.8-6.656 21.504t-18.688 14.080-28.672 8.704-36.608 5.888l19.456 60.928q-46.592 1.536-84.992 19.968t-66.048 51.968-43.008 81.152-15.36 108.032q0 58.368 15.36 106.496t45.056 82.944 72.448 54.016 98.048 19.2q49.664 0 88.064-15.872t67.072-43.008l-12.8-17.408q-2.56-2.56-4.864-4.352t-6.4-1.792q-5.12 0-13.824 6.912t-23.552 15.104-37.12 15.104-54.016 6.912q-44.032 0-78.080-15.616t-57.6-44.8-35.584-70.656-12.032-93.184q0-53.76 12.544-95.232t35.584-69.888 55.808-43.264 72.704-14.848q36.864 0 61.696 8.704t40.96 18.944 25.344 18.944 15.36 8.704 10.24-5.12l12.8-16.384q-22.016-28.672-62.72-48.128t-91.904-23.040l-12.8-41.984q46.592-8.192 70.4-23.808t23.808-45.824q0-15.36-6.912-27.648t-19.456-20.736-29.952-12.8-37.888-4.352q-20.992 0-40.96 5.888t-33.28 15.616l5.12 14.336q3.072 5.632 8.192 5.632z" />
<glyph unicode="&#xe8;" glyph-name="uniE8" horiz-adv-x="534" d="M283.136 653.312q43.008 0 79.872-14.848t64-43.264 42.752-69.888 15.616-95.232q0-11.264-3.072-15.36t-10.24-4.096h-370.688v-9.728q0-57.344 13.312-100.864t37.888-72.96 59.392-44.288 77.824-14.848q38.4 0 66.56 8.448t47.36 18.944 30.464 18.944 16.384 8.448q6.656 0 10.24-5.12l13.312-16.384q-12.288-15.36-32.512-28.672t-45.056-22.784-53.248-15.104-57.088-5.632q-52.224 0-95.232 18.176t-73.728 52.992-47.36 85.248-16.64 115.456q0 54.784 15.616 101.12t45.056 79.872 72.192 52.48 97.024 18.944zM283.648 616.96q-39.424 0-70.656-12.288t-54.016-35.328-36.864-55.296-18.688-72.192h337.92q0 40.96-11.52 73.472t-32.512 55.040-49.92 34.56-63.744 12.032zM224.768 868.352q12.288 0 18.432-3.584t11.776-12.8l80.384-121.856h-28.16q-6.144 0-10.496 1.792t-8.448 6.912l-110.592 129.536h47.104z" />
<glyph unicode="&#xe9;" glyph-name="uniE9" horiz-adv-x="534" d="M283.136 653.312q43.008 0 79.872-14.848t64-43.264 42.752-69.888 15.616-95.232q0-11.264-3.072-15.36t-10.24-4.096h-370.688v-9.728q0-57.344 13.312-100.864t37.888-72.96 59.392-44.288 77.824-14.848q38.4 0 66.56 8.448t47.36 18.944 30.464 18.944 16.384 8.448q6.656 0 10.24-5.12l13.312-16.384q-12.288-15.36-32.512-28.672t-45.056-22.784-53.248-15.104-57.088-5.632q-52.224 0-95.232 18.176t-73.728 52.992-47.36 85.248-16.64 115.456q0 54.784 15.616 101.12t45.056 79.872 72.192 52.48 97.024 18.944zM283.648 616.96q-39.424 0-70.656-12.288t-54.016-35.328-36.864-55.296-18.688-72.192h337.92q0 40.96-11.52 73.472t-32.512 55.040-49.92 34.56-63.744 12.032zM398.336 868.352l-111.104-129.536q-4.096-5.12-8.448-6.912t-10.496-1.792h-29.184l80.384 121.856q5.632 9.216 11.776 12.8t18.432 3.584h48.64z" />
<glyph unicode="&#xea;" glyph-name="uniEA" horiz-adv-x="534" d="M283.136 653.312q43.008 0 79.872-14.848t64-43.264 42.752-69.888 15.616-95.232q0-11.264-3.072-15.36t-10.24-4.096h-370.688v-9.728q0-57.344 13.312-100.864t37.888-72.96 59.392-44.288 77.824-14.848q38.4 0 66.56 8.448t47.36 18.944 30.464 18.944 16.384 8.448q6.656 0 10.24-5.12l13.312-16.384q-12.288-15.36-32.512-28.672t-45.056-22.784-53.248-15.104-57.088-5.632q-52.224 0-95.232 18.176t-73.728 52.992-47.36 85.248-16.64 115.456q0 54.784 15.616 101.12t45.056 79.872 72.192 52.48 97.024 18.944zM283.648 616.96q-39.424 0-70.656-12.288t-54.016-35.328-36.864-55.296-18.688-72.192h337.92q0 40.96-11.52 73.472t-32.512 55.040-49.92 34.56-63.744 12.032zM416.256 734.208h-33.28q-7.68 0-14.848 7.168l-78.848 84.992q-3.584 2.56-5.632 6.144l-5.632-6.144-78.848-84.992q-3.072-3.072-6.912-5.12t-7.936-2.048h-34.304l111.104 125.952h43.52z" />
<glyph unicode="&#xeb;" glyph-name="uniEB" horiz-adv-x="534" d="M283.136 653.312q43.008 0 79.872-14.848t64-43.264 42.752-69.888 15.616-95.232q0-11.264-3.072-15.36t-10.24-4.096h-370.688v-9.728q0-57.344 13.312-100.864t37.888-72.96 59.392-44.288 77.824-14.848q38.4 0 66.56 8.448t47.36 18.944 30.464 18.944 16.384 8.448q6.656 0 10.24-5.12l13.312-16.384q-12.288-15.36-32.512-28.672t-45.056-22.784-53.248-15.104-57.088-5.632q-52.224 0-95.232 18.176t-73.728 52.992-47.36 85.248-16.64 115.456q0 54.784 15.616 101.12t45.056 79.872 72.192 52.48 97.024 18.944zM283.648 616.96q-39.424 0-70.656-12.288t-54.016-35.328-36.864-55.296-18.688-72.192h337.92q0 40.96-11.52 73.472t-32.512 55.040-49.92 34.56-63.744 12.032zM235.008 793.088q0-8.192-3.584-15.616t-9.472-13.056-13.568-8.96-15.872-3.328q-8.704 0-16.128 3.328t-13.312 8.96-9.216 13.056-3.328 15.616q0 8.704 3.328 16.384t9.216 13.568 13.312 9.216 16.128 3.328q8.192 0 15.872-3.328t13.568-9.216 9.472-13.568 3.584-16.384zM415.232 793.088q0-8.192-3.584-15.616t-9.216-13.056-13.312-8.96-15.872-3.328q-8.704 0-16.384 3.328t-13.312 8.96-8.96 13.056-3.328 15.616q0 17.408 12.288 29.952t29.696 12.544q8.192 0 15.872-3.328t13.312-9.216 9.216-13.568 3.584-16.384z" />
<glyph unicode="&#xec;" glyph-name="uniEC" horiz-adv-x="228" d="M138.752 645.12v-509.44h-49.152v509.44h49.152zM56.832 868.352q12.288 0 18.432-3.584t11.776-12.8l80.384-121.856h-28.16q-6.144 0-10.496 1.792t-8.448 6.912l-110.592 129.536h47.104z" />
<glyph unicode="&#xed;" glyph-name="uniED" horiz-adv-x="228" d="M138.752 645.12v-509.44h-49.152v509.44h49.152zM230.4 868.352l-111.104-129.536q-4.096-5.12-8.448-6.912t-10.496-1.792h-29.184l80.384 121.856q5.632 9.216 11.776 12.8t18.432 3.584h48.64z" />
<glyph unicode="&#xee;" glyph-name="uniEE" horiz-adv-x="228" d="M138.752 645.12v-509.44h-49.152v509.44h49.152zM248.32 734.208h-33.28q-7.68 0-14.848 7.168l-78.848 84.992q-3.584 2.56-5.632 6.144l-5.632-6.144-78.848-84.992q-3.072-3.072-6.912-5.12t-7.936-2.048h-34.304l111.104 125.952h43.52z" />
<glyph unicode="&#xef;" glyph-name="uniEF" horiz-adv-x="228" d="M138.752 645.12v-509.44h-49.152v509.44h49.152zM86.016 793.088q0-8.192-3.584-15.616t-9.216-13.056-13.568-8.96-16.128-3.328-15.616 3.328-13.312 8.96-9.216 13.056-3.328 15.616q0 8.704 3.328 16.384t9.216 13.568 13.312 9.216 15.616 3.328 16.128-3.328 13.568-9.216 9.216-13.568 3.584-16.384zM228.352 793.088q0-8.192-3.584-15.616t-9.216-13.056-13.568-8.96-16.128-3.328q-8.704 0-16.128 3.328t-13.312 8.96-9.216 13.056-3.328 15.616q0 8.704 3.328 16.384t9.216 13.568 13.312 9.216 16.128 3.328q8.192 0 16.128-3.328t13.568-9.216 9.216-13.568 3.584-16.384z" />
<glyph unicode="&#xf0;" glyph-name="uniF0" horiz-adv-x="574" d="M240.64 683.52q-4.096 5.12-3.584 10.496t6.144 9.472l64.512 55.808q-30.72 16.896-64.768 28.928t-71.936 19.712q-6.144 1.536-11.008 7.168t-1.28 15.872l5.632 17.408q46.080-7.168 90.88-22.528t84.736-39.936l78.336 69.12 9.216-14.848q7.168-11.264-4.096-19.968l-58.368-51.2q32.256-24.064 59.136-55.296t46.592-71.68 30.464-90.112 10.752-109.568q0-70.656-14.592-128.256t-43.776-98.816-73.216-63.488-102.912-22.272q-46.592 0-87.296 16.64t-71.168 47.616-47.872 75.264-17.408 99.584q0 49.152 14.848 92.672t43.264 76.032 69.888 51.2 94.208 18.688q27.136 0 54.528-6.912t52.736-21.504 47.36-37.12 38.4-53.248q-7.68 92.672-43.52 154.624t-92.16 100.352l-83.968-74.24zM278.528 167.936q45.056 0 79.36 17.664t57.856 50.688 36.352 80.64 14.336 107.008q-7.68 26.112-22.784 52.224t-37.632 46.592-52.736 33.28-69.12 12.8q-45.056 0-79.104-15.36t-56.832-42.496-34.304-63.744-11.52-78.592q0-47.616 14.080-84.992t38.4-62.976 56.32-39.168 67.328-13.568z" />
<glyph unicode="&#xf1;" glyph-name="uniF1" horiz-adv-x="563" d="M83.968 135.68v509.44h27.136q12.8 0 14.848-12.8l4.608-76.8q35.328 44.544 81.408 71.168t103.424 26.624q41.984 0 73.984-13.312t52.992-38.4 31.744-60.416 10.752-79.872v-325.632h-49.152v325.632q0 71.68-32.768 112.384t-99.84 40.704q-50.176 0-93.184-25.344t-76.8-70.4v-382.976h-49.152zM340.992 791.040q22.528 0 33.536 14.080t12.032 38.144h30.208q0-18.432-4.864-34.56t-14.336-27.904-23.296-18.432-31.744-6.656q-16.896 0-31.744 8.448t-28.672 18.432-26.88 18.432-26.368 8.448q-21.504 0-33.024-14.592t-12.032-37.632h-31.232q0 18.432 5.12 34.56t14.848 27.904 23.552 18.432 31.232 6.656 32.256-8.448 28.416-18.432 26.624-18.432 26.368-8.448z" />
</font>
</defs>
</svg>
